<svg xmlns="http://www.w3.org/2000/svg" viewBox="0 0 189.78 170.46"><defs><style>.cls-1{fill:#34945e;}.cls-2{fill:#d1b091;}.cls-3{fill:#d9d6d3;}.cls-4{fill:#b2a9a7;}.cls-5{fill:#cad1d3;}.cls-6{fill:#a4abb6;}.cls-7{fill:#fff;}.cls-8{fill:#bd886d;}.cls-9{fill:#333132;}.cls-10{fill:#c7d68f;}.cls-11{fill:#f4dbb8;}.cls-12{fill:#434345;}</style></defs><title>coder-jp</title><g id="Capa_2" data-name="Capa 2"><g id="Capa_1-2" data-name="Capa 1"><path class="cls-1" d="M46.89,154c-6-.7-12.46-4.14-17.35-13l12.75-8.25s2,7.36,7.5,6.06,8.25-9.56,12.75-14.31c3.69-3.9,7.72-6.93,12.37-8-1.46-1.17-2.89-2.17-4.15-3.12a30.59,30.59,0,0,0-7.46-3.89,14.08,14.08,0,0,1-4.3,1V111s-.5,7-6.63,7.5-7.37-8-7.37-8v-2.14a10.55,10.55,0,0,1-3,.62,5.16,5.16,0,0,1-2.39-.43,28.85,28.85,0,0,0-9.32,4c-8,5.5-12.32,16-14.16,23-.91,3.43-2.21,11.43-3.3,18.67a3.12,3.12,0,0,1,.81-.13Zm-31.26-4c.07-.54,1.68-13.42,5.3-22.93,3.81-10,13.71-15.75,14.65-15.8l.08,1.5-1.18.92,1.18-.92.59,1.37c-.08,0-9.07,4.93-12.52,14s-5.1,22.1-5.12,22.23a1.5,1.5,0,0,1-1.49,1.32l-.18,0A1.5,1.5,0,0,1,15.63,150Z"/><path class="cls-1" d="M10.79,168.35h.11c0-.11-.05-.21-.07-.32C10.8,168.23,10.79,168.35,10.79,168.35Z"/><path class="cls-1" d="M84.64,131a3,3,0,0,1-1.35.74c-3.25.75-6.5,3.25-8.5,5.5s-9.75,12.25-17,15.25a22.43,22.43,0,0,1-6,1.54H86.37A1.42,1.42,0,0,1,85,152.58v-3.29a1.43,1.43,0,0,1,1.42-1.42h.82c0-.26,0-.53-.08-.79a111.47,111.47,0,0,0-2.32-15.62Z"/><path class="cls-2" d="M62.54,124.46c-4.5,4.75-7.25,13-12.75,14.31s-7.5-6.06-7.5-6.06L29.54,141c4.89,8.9,11.37,12.34,17.35,13h4.86a22.43,22.43,0,0,0,6-1.54c7.25-3,15-13,17-15.25s5.25-4.75,8.5-5.5a3,3,0,0,0,1.35-.74l.15.49a111.47,111.47,0,0,1,2.32,15.62c.67-.21,1.31-.44,1.91-.68,7.25-3,15-13,17-15.25s5.25-4.75,8.5-5.5,3.5-6.5,3.25-8.75a8.05,8.05,0,0,0-8.5-7c-6,.27-11,3.73-15.5,8.48-3.06,3.23-5.32,8.08-8.18,11.27a13.72,13.72,0,0,0,1-6.71,8.05,8.05,0,0,0-8.5-7,16.86,16.86,0,0,0-3.13.44C70.26,117.53,66.23,120.56,62.54,124.46ZM45.92,152.38h-.4c-7.48,0-13.42-9.4-13.67-9.81A1.5,1.5,0,1,1,34.39,141c.06.08,5.5,8.66,11.39,8.39a1.48,1.48,0,0,1,1.57,1.43A1.5,1.5,0,0,1,45.92,152.38Zm42.53-22.8c0-.1,1.28-2.5,6.27-9A22,22,0,0,1,107,112.31a1.5,1.5,0,0,1,.56,3,19.25,19.25,0,0,0-10.47,7.12,74.58,74.58,0,0,0-6,8.56,1.5,1.5,0,0,1-2,.65A1.5,1.5,0,0,1,88.45,129.58Z"/><path class="cls-3" d="M122.64,154h-109a3.12,3.12,0,0,0-.81.13,2.86,2.86,0,0,0-2,2.73V167.6a3.13,3.13,0,0,0,0,.43c0,.11,0,.21.07.32a2.85,2.85,0,0,0,2.74,2.11H175.19a2.86,2.86,0,0,0,2.86-2.86V156.86a2.85,2.85,0,0,0-2-2.72H122.6Zm51.83,1.28a1.83,1.83,0,0,1,1.82,1.82v10a1.83,1.83,0,0,1-1.82,1.82H59a1.82,1.82,0,0,1-1.81-1.82v-10A1.82,1.82,0,0,1,59,155.28Z"/><rect class="cls-4" x="57.19" y="155.28" width="119.1" height="13.67" rx="1.82"/><path class="cls-5" d="M178.61,151.93l11-40.3a5.59,5.59,0,0,0,0-2.87Z"/><path class="cls-5" d="M85,149.29v3.29A1.42,1.42,0,0,0,86.37,154h36.27l13.94-47.28a3.3,3.3,0,0,1,3.16-2.35h-1.62a5.74,5.74,0,0,0-5.49,4l-12.25,39.45h-34A1.43,1.43,0,0,0,85,149.29Zm14.09.92h17.25v2.5H99Z"/><path class="cls-6" d="M189.67,108.49a3.3,3.3,0,0,0-3.19-4.12H139.74a3.3,3.3,0,0,0-3.16,2.35L122.64,154l0,.14h55.45l.56-2.21,11-43.17Z"/><rect class="cls-6" x="99.04" y="150.21" width="17.25" height="2.5"/><path class="cls-2" d="M88.54,41.25A6.5,6.5,0,0,1,83.29,45c-4,.5-8.75-6-8.75-6s-1.5,5.25-8.75,5.75-13.87,1.55-21.25-.5C38.56,42.59,28,34,28,34s.25,14.75-2.5,19.25a35.35,35.35,0,0,1-4.34,5.53L22,73.65s25.75,6.28,47.25,5.78c20.82-.49,23.48-5.44,23.63-5.76V72.34a40.32,40.32,0,0,1-13.41,2.82c-5.23,0-11.66-4.12-11.66-7.47V53.05H58.18V67.69c0,3.35-6.43,7.47-11.66,7.47-3.62,0-17.78-2-17.78-7.47V51.33a4.41,4.41,0,0,1,4.4-4.4H53.79a4.4,4.4,0,0,1,4.05,2.72h10.3a4.42,4.42,0,0,1,4.06-2.72H92.39c0-1.08-.08-2.1-.11-3A10.55,10.55,0,0,1,88.54,41.25ZM63,72.16c3.84-1.15,9.43-1.1,9.84,3s-2,2.9-2,2.9H58.28S59.16,73.31,63,72.16Z"/><path class="cls-2" d="M49,105.68a10.16,10.16,0,0,1-4,2.63v2.14s1.25,8.5,7.37,8S59,111,59,111v-.58l-.77.06A10.61,10.61,0,0,1,49,105.68Z"/><path class="cls-7" d="M53.79,49.93H33.14a1.4,1.4,0,0,0-1.4,1.4V67.69c0,1.58,8.69,4.47,14.78,4.47,4.45,0,8.57-3.41,8.66-4.47V51.33A1.4,1.4,0,0,0,53.79,49.93ZM49.91,69.45a4,4,0,1,1,4-4A4,4,0,0,1,49.91,69.45Z"/><path class="cls-7" d="M70.81,51.33V67.69c.09,1.06,4.21,4.47,8.66,4.47,6.09,0,14.77-2.89,14.77-4.47V51.33a1.4,1.4,0,0,0-1.39-1.4H72.2A1.4,1.4,0,0,0,70.81,51.33Zm16,10.05a4,4,0,1,1-4,4A4,4,0,0,1,86.82,61.38Z"/><path d="M68.14,49.65H57.84a4.4,4.4,0,0,0-4.05-2.72H33.14a4.41,4.41,0,0,0-4.4,4.4V67.69c0,5.52,14.16,7.47,17.78,7.47,5.23,0,11.66-4.12,11.66-7.47V53.05h9.63V67.69c0,3.35,6.43,7.47,11.66,7.47a40.32,40.32,0,0,0,13.41-2.82c2.52-1.14,4.36-2.66,4.36-4.65V51.33a4.4,4.4,0,0,0-4.39-4.4H72.2A4.42,4.42,0,0,0,68.14,49.65Zm-13,18c-.09,1.06-4.21,4.47-8.66,4.47-6.09,0-14.78-2.89-14.78-4.47V51.33a1.4,1.4,0,0,1,1.4-1.4H53.79a1.4,1.4,0,0,1,1.39,1.4ZM92.85,49.93a1.4,1.4,0,0,1,1.39,1.4V67.69c0,1.58-8.68,4.47-14.77,4.47-4.45,0-8.57-3.41-8.66-4.47V51.33a1.4,1.4,0,0,1,1.39-1.4Z"/><path class="cls-8" d="M72.83,75.16c-.41-4.1-6-4.15-9.84-3s-4.71,5.9-4.71,5.9H70.81S73.24,79.27,72.83,75.16Z"/><circle class="cls-9" cx="49.91" cy="65.42" r="4.04"/><circle class="cls-9" cx="86.82" cy="65.42" r="4.04"/><path class="cls-2" d="M13.55,64.22a2.92,2.92,0,0,0,2,2.09.5.5,0,0,1-.15,1l-.15,0a4,4,0,0,1-2.75-2.9,3.37,3.37,0,0,1-1-.12,2.81,2.81,0,0,1-1.45-1,6.25,6.25,0,0,0,6.25,6.18V62.94A9.51,9.51,0,0,1,13.55,64.22Z"/><path class="cls-9" d="M45,108.31a10.16,10.16,0,0,0,4-2.63,10.61,10.61,0,0,0,9.23,4.75l.77-.06a14.08,14.08,0,0,0,4.3-1,7.39,7.39,0,0,0,3.2-2.23,18.64,18.64,0,0,0,10.75,3.25A6.88,6.88,0,0,0,84,104.68a8,8,0,0,0,8.89,2c5.61-2,3.86-7.5,3.86-7.5s6.75.75,7-4.5.5-15-3.5-18.25-7.36-2.77-7.36-2.77h0c-.15.32-2.81,5.27-23.63,5.76C47.75,79.93,22,73.65,22,73.65l-.8-14.87a35.35,35.35,0,0,0,4.34-5.53C28.29,48.75,28,34,28,34s10.52,8.59,16.5,10.25c7.38,2,14,1,21.25.5S74.54,39,74.54,39s4.75,6.5,8.75,6a6.5,6.5,0,0,0,5.25-3.75,10.55,10.55,0,0,0,3.74,2.64,5.53,5.53,0,0,0,2.76.36c3.5-.5,6.25-6.25,3.25-9S93,26.75,91.68,23.5s-4.39-7.25-10.39-13.25S61.29,0,49.54,0s-25,2.75-26.75,8.25c-3-1.75-10.5.5-15.5,7.25s-2.5,24.75-3,31S-3.21,58,1.79,61s8.75-4,8.75-4-2.07,4.16-.45,6.27a2.81,2.81,0,0,0,1.45,1,3.37,3.37,0,0,0,1,.12,5.22,5.22,0,0,1-.09-2.16.51.51,0,0,1,.59-.4.49.49,0,0,1,.39.59,4.49,4.49,0,0,0,.11,1.82,9.51,9.51,0,0,0,2.79-1.28V92.68s-.59,6.55,3.32,7.5c4.84,1.16,6.89-2.31,6.89-2.31s-1.4,6.13,3.2,7.31a7.15,7.15,0,0,0,6.25-1,7.48,7.48,0,0,0,3.61,4.32,5.16,5.16,0,0,0,2.39.43A10.55,10.55,0,0,0,45,108.31ZM45.42,82c5.39,0,9.76,3.66,9.76,8.17s-4.37,8.16-9.76,8.16-9.76-3.65-9.76-8.16S40,82,45.42,82Zm8.29-39.48h0C40.74,42.18,28.51,29.6,28,29.07A1.5,1.5,0,0,1,30.16,27c.12.12,11.9,12.23,23.59,12.54a1.5,1.5,0,0,1,0,3Zm20.42-8.87a1.53,1.53,0,0,1-.3,0,1.51,1.51,0,0,1-1.47-1.2c0-.12-2.52-12-10.21-14a1.5,1.5,0,0,1,.78-2.9C72.42,18.13,75.19,31.33,75.3,31.9A1.49,1.49,0,0,1,74.13,33.66ZM10,36.79a1.5,1.5,0,0,1-1.24,1.72l-.24,0A1.49,1.49,0,0,1,7,37.27C3.88,18.11,14.7,12,15.16,11.71a1.5,1.5,0,0,1,1.45,2.63C16.2,14.57,7.21,19.86,10,36.79Z"/><path class="cls-2" d="M45.42,98.34c5.39,0,9.76-3.65,9.76-8.16S50.81,82,45.42,82s-9.76,3.66-9.76,8.17S40,98.34,45.42,98.34ZM41,88.94a1.5,1.5,0,0,1,2.09.39,3.34,3.34,0,0,0,2.4,1.75c1.34.07,2.7-1.31,3.12-1.83A1.5,1.5,0,0,1,51,91.1c-.24.31-2.41,3-5.41,3h-.15C43.58,94,42,93,40.61,91A1.5,1.5,0,0,1,41,88.94Z"/><path class="cls-10" d="M16.94,151.69l.18,0a1.5,1.5,0,0,0,1.49-1.32c0-.13,1.64-13.07,5.12-22.23s12.44-14,12.52-14l-.59-1.37-1.18.92,1.18-.92-.08-1.5c-.94,0-10.84,5.79-14.65,15.8-3.62,9.51-5.23,22.39-5.3,22.93A1.5,1.5,0,0,0,16.94,151.69Z"/><path class="cls-11" d="M45.78,149.39c-5.89.27-11.33-8.31-11.39-8.39a1.5,1.5,0,1,0-2.54,1.58c.25.41,6.19,9.81,13.67,9.81h.4a1.5,1.5,0,0,0,1.43-1.56A1.48,1.48,0,0,0,45.78,149.39Z"/><path class="cls-11" d="M15.3,67.27l.15,0a.5.5,0,0,0,.15-1,2.92,2.92,0,0,1-2-2.09,4.49,4.49,0,0,1-.11-1.82.49.49,0,0,0-.39-.59.51.51,0,0,0-.59.4,5.22,5.22,0,0,0,.09,2.16A4,4,0,0,0,15.3,67.27Z"/><path class="cls-11" d="M89.11,131.59a1.5,1.5,0,0,0,2-.65,74.58,74.58,0,0,1,6-8.56,19.25,19.25,0,0,1,10.47-7.12,1.5,1.5,0,0,0-.56-3,22,22,0,0,0-12.29,8.25c-5,6.52-6.22,8.92-6.27,9A1.5,1.5,0,0,0,89.11,131.59Z"/><path class="cls-12" d="M53.75,39.53C42.06,39.22,30.28,27.11,30.16,27A1.5,1.5,0,0,0,28,29.07c.51.53,12.74,13.11,25.67,13.46h0a1.5,1.5,0,0,0,0-3Z"/><path class="cls-11" d="M45.41,94.08h.15c3,0,5.17-2.67,5.41-3a1.5,1.5,0,0,0-2.36-1.85c-.42.52-1.78,1.9-3.12,1.83a3.34,3.34,0,0,1-2.4-1.75A1.5,1.5,0,0,0,40.61,91C42,93,43.58,94,45.41,94.08Z"/><path class="cls-12" d="M16.61,14.34a1.5,1.5,0,0,0-1.45-2.63C14.7,12,3.88,18.11,7,37.27A1.49,1.49,0,0,0,8.5,38.53l.24,0A1.5,1.5,0,0,0,10,36.79C7.21,19.86,16.2,14.57,16.61,14.34Z"/><path class="cls-12" d="M62.93,15.58a1.5,1.5,0,0,0-.78,2.9c7.69,2.06,10.19,13.89,10.21,14a1.51,1.51,0,0,0,1.47,1.2,1.53,1.53,0,0,0,.3,0A1.49,1.49,0,0,0,75.3,31.9C75.19,31.33,72.42,18.13,62.93,15.58Z"/></g></g></svg>