<svg xmlns="http://www.w3.org/2000/svg" viewBox="0 0 208.24 168.73"><defs><style>.cls-1{fill:#d1b091;}.cls-2{fill:#d70073;}.cls-3{fill:#fff;}.cls-4{fill:#333132;}.cls-5{fill:#f282a9;}.cls-6{fill:#f4dbb8;}.cls-7{fill:#bd886d;}.cls-8{fill:#34945e;}.cls-9{fill:#5f6e7d;}.cls-10{fill:#e3f3f3;}.cls-11{fill:#d9d6d3;}.cls-12{fill:#434345;}</style></defs><title>draw-jp</title><g id="Capa_2" data-name="Capa 2"><g id="Capa_1-2" data-name="Capa 1"><path class="cls-1" d="M103.79,121a1.51,1.51,0,0,1,1.49-1.52h0a1.51,1.51,0,0,1,1.5,1.49c0,1.82,0,4.32-.19,7l14,.25a51.71,51.71,0,0,0,.77-15.43,8.11,8.11,0,0,0-2.28-4.81l-9.26,7.09-.12,0a3.64,3.64,0,0,1-2.55-3.47l7.66-5.82c-4-.87-8.57.48-10.61,3.24-2.94,4-1.21,13.72-2.76,18.89l2.15,0C103.72,125.78,103.81,123.46,103.79,121Z"/><path class="cls-1" d="M85.55,134.9c-1.74-3.42-5.21-6-9.41-5-6.81,1.58-12.85,15.74-21,14.41s-13.79-11.27-13.79-11.27l-15,11.27c11.6,16.6,18.62,21,27.1,21l37.91-36a72.73,72.73,0,0,1-10.46-6.49,28.8,28.8,0,0,1,3.85,8.59C85.05,132.43,85.31,133.6,85.55,134.9ZM47.83,160.71h-.41c-7.47,0-13.41-9.41-13.67-9.81a1.5,1.5,0,1,1,2.55-1.59c.05.09,5.47,8.63,11.39,8.39a1.5,1.5,0,1,1,.14,3Z"/><path class="cls-2" d="M26.39,144.32l15-11.27s5.69,9.93,13.79,11.27,14.15-12.83,21-14.41c4.2-1,7.67,1.57,9.41,5-.24-1.3-.5-2.47-.76-3.44a28.8,28.8,0,0,0-3.85-8.59c-3.16-4.73-7.13-7.29-10.18-9.57a30.59,30.59,0,0,0-7.46-3.89,14.08,14.08,0,0,1-4.3,1V111s-.5,7-6.63,7.5-7.37-8-7.37-8v-2.14a10.55,10.55,0,0,1-3,.62,5.16,5.16,0,0,1-2.39-.43,28.85,28.85,0,0,0-9.32,4c-8,5.5-12.32,16-14.16,23s-5.34,32.89-5.34,32.89H50.32l3.17-3C45,165.29,38,160.92,26.39,144.32Zm-7.78,6.07a1.5,1.5,0,0,1-1.49,1.32l-.18,0A1.5,1.5,0,0,1,15.63,150c.07-.54,1.68-13.42,5.3-22.93,3.8-10,13.71-15.75,14.65-15.8l.08,1.5-1.18.92,1.18-.92.59,1.37c-.08,0-9.07,4.93-12.52,14S18.63,150.26,18.61,150.39Z"/><path class="cls-1" d="M88.54,41.25A6.5,6.5,0,0,1,83.29,45c-4,.5-8.75-6-8.75-6s-1.5,5.25-8.75,5.75-13.87,1.55-21.25-.5C38.56,42.59,28,34,28,34s.25,14.75-2.5,19.25a35.35,35.35,0,0,1-4.34,5.53L22,73.65s25.75,6.28,47.25,5.78c20.82-.49,23.48-5.44,23.63-5.76V72.34a40.32,40.32,0,0,1-13.41,2.82,13.69,13.69,0,0,1-4.79-1A3.77,3.77,0,0,1,75,75.45c.41,4.11-2,2.9-2,2.9H60.48s.87-4.74,4.71-5.9a14.63,14.63,0,0,1,5.35-.59c-1.64-1.3-2.73-2.79-2.73-4.17V53.05H58.18V67.69c0,3.35-6.43,7.47-11.66,7.47-3.62,0-17.78-2-17.78-7.47V51.33a4.41,4.41,0,0,1,4.4-4.4H53.79a4.4,4.4,0,0,1,4.05,2.72h10.3a4.42,4.42,0,0,1,4.06-2.72H92.39c0-1.08-.08-2.1-.11-3A10.55,10.55,0,0,1,88.54,41.25Z"/><path class="cls-1" d="M49,105.68a10.16,10.16,0,0,1-4,2.63v2.14s1.25,8.5,7.37,8S59,111,59,111v-.58l-.77.06A10.61,10.61,0,0,1,49,105.68Z"/><path class="cls-3" d="M53.79,49.93H33.14a1.4,1.4,0,0,0-1.4,1.4V67.69c0,1.58,8.69,4.47,14.78,4.47,4.45,0,8.57-3.41,8.66-4.47V51.33A1.4,1.4,0,0,0,53.79,49.93ZM49,71.28a4,4,0,1,1,4-4A4,4,0,0,1,49,71.28Z"/><path class="cls-3" d="M70.81,51.33V67.69c.09,1.06,4.21,4.47,8.66,4.47a31.53,31.53,0,0,0,6.92-.9,4,4,0,1,1,2.34-.62c3.13-.94,5.51-2.12,5.51-3V51.33a1.4,1.4,0,0,0-1.39-1.4H72.2A1.4,1.4,0,0,0,70.81,51.33Z"/><path d="M68.14,49.65H57.84a4.4,4.4,0,0,0-4.05-2.72H33.14a4.41,4.41,0,0,0-4.4,4.4V67.69c0,5.52,14.16,7.47,17.78,7.47,5.23,0,11.66-4.12,11.66-7.47V53.05h9.63V67.69c0,1.38,1.09,2.87,2.73,4.17,1.85.18,3.45.87,4.14,2.33a13.69,13.69,0,0,0,4.79,1,40.32,40.32,0,0,0,13.41-2.82c2.52-1.14,4.36-2.66,4.36-4.65V51.33a4.4,4.4,0,0,0-4.39-4.4H72.2A4.42,4.42,0,0,0,68.14,49.65Zm-13,18c-.09,1.06-4.21,4.47-8.66,4.47-6.09,0-14.78-2.89-14.78-4.47V51.33a1.4,1.4,0,0,1,1.4-1.4H53.79a1.4,1.4,0,0,1,1.39,1.4ZM92.85,49.93a1.4,1.4,0,0,1,1.39,1.4V67.69c0,.83-2.38,2-5.51,3a4,4,0,0,1-2.16.64l-.18,0a31.53,31.53,0,0,1-6.92.9c-4.45,0-8.57-3.41-8.66-4.47V51.33a1.4,1.4,0,0,1,1.39-1.4Z"/><circle class="cls-4" cx="48.99" cy="67.24" r="4.04"/><path class="cls-4" d="M90.6,67.24a4,4,0,1,0-4.21,4l.18,0a4.06,4.06,0,0,0,4-4Z"/><path class="cls-1" d="M13.55,64.22a2.92,2.92,0,0,0,2,2.09.5.5,0,0,1-.15,1l-.15,0a3.94,3.94,0,0,1-2.75-2.9,3.37,3.37,0,0,1-1-.12,2.81,2.81,0,0,1-1.45-1,6.25,6.25,0,0,0,6.25,6.18V62.94A9.51,9.51,0,0,1,13.55,64.22Z"/><path class="cls-4" d="M45,108.31a10.16,10.16,0,0,0,4-2.63,10.61,10.61,0,0,0,9.23,4.75l.77-.06a14.08,14.08,0,0,0,4.3-1,7.39,7.39,0,0,0,3.2-2.23,18.64,18.64,0,0,0,10.75,3.25A6.88,6.88,0,0,0,84,104.68a8,8,0,0,0,8.89,2c5.61-2,3.86-7.5,3.86-7.5s6.75.75,7-4.5.5-15-3.5-18.25-7.36-2.77-7.36-2.77h0c-.15.32-2.81,5.27-23.63,5.76C47.75,79.93,22,73.65,22,73.65l-.8-14.87a35.35,35.35,0,0,0,4.34-5.53C28.29,48.75,28,34,28,34s10.52,8.59,16.5,10.25c7.38,2,14,1,21.25.5S74.54,39,74.54,39s4.75,6.5,8.75,6a6.5,6.5,0,0,0,5.25-3.75,10.55,10.55,0,0,0,3.74,2.64,5.53,5.53,0,0,0,2.76.36c3.5-.5,6.25-6.25,3.25-9S93,26.75,91.68,23.5s-4.39-7.25-10.39-13.25S61.29,0,49.54,0s-25,2.75-26.75,8.25c-3-1.75-10.5.5-15.5,7.25s-2.5,24.75-3,31S-3.21,58,1.79,61s8.75-4,8.75-4-2.07,4.16-.45,6.27a2.81,2.81,0,0,0,1.45,1,3.37,3.37,0,0,0,1,.12,4.57,4.57,0,0,0,1-.15,9.51,9.51,0,0,0,2.79-1.28V92.68s-.59,6.55,3.32,7.5c4.84,1.16,6.89-2.31,6.89-2.31s-1.4,6.13,3.2,7.31a7.15,7.15,0,0,0,6.25-1,7.48,7.48,0,0,0,3.61,4.32,5.16,5.16,0,0,0,2.39.43A10.55,10.55,0,0,0,45,108.31ZM45.42,82c5.39,0,9.76,3.66,9.76,8.17s-4.37,8.16-9.76,8.16-9.76-3.65-9.76-8.16S40,82,45.42,82Zm8.29-39.48h0C40.74,42.18,28.51,29.6,28,29.07A1.5,1.5,0,0,1,30.16,27c.12.12,11.9,12.23,23.59,12.54a1.5,1.5,0,0,1,0,3ZM10,36.79a1.5,1.5,0,0,1-1.24,1.72l-.24,0A1.49,1.49,0,0,1,7,37.27C3.88,18.11,14.7,12,15.16,11.71a1.52,1.52,0,0,1,2,.6,1.5,1.5,0,0,1-.59,2C16.2,14.57,7.21,19.86,10,36.79Z"/><path class="cls-1" d="M45.42,98.34c5.39,0,9.76-3.65,9.76-8.16S50.81,82,45.42,82s-9.76,3.66-9.76,8.17S40,98.34,45.42,98.34ZM41,88.94a1.5,1.5,0,0,1,2.09.39,3.34,3.34,0,0,0,2.4,1.75c1.33,0,2.7-1.31,3.12-1.83A1.5,1.5,0,0,1,51,91.1c-.24.31-2.41,3-5.41,3h-.15C43.58,94,42,93,40.61,91A1.5,1.5,0,0,1,41,88.94Z"/><path class="cls-5" d="M36.25,114.16l-.59-1.37-1.18.92,1.18-.92-.08-1.5c-.94,0-10.85,5.79-14.65,15.8-3.62,9.51-5.23,22.39-5.3,22.93a1.5,1.5,0,0,0,1.31,1.67l.18,0a1.5,1.5,0,0,0,1.49-1.32c0-.13,1.63-13.06,5.12-22.23S36.17,114.2,36.25,114.16Z"/><path class="cls-6" d="M15.3,67.27l.15,0a.5.5,0,0,0,.15-1,2.92,2.92,0,0,1-2-2.09,4.57,4.57,0,0,1-1,.15A3.94,3.94,0,0,0,15.3,67.27Z"/><path class="cls-6" d="M45.41,94.08h.15c3,0,5.17-2.67,5.41-3a1.5,1.5,0,0,0-2.36-1.85c-.42.52-1.79,1.88-3.12,1.83a3.34,3.34,0,0,1-2.4-1.75A1.5,1.5,0,0,0,40.61,91C42,93,43.58,94,45.41,94.08Z"/><path class="cls-7" d="M70.54,71.86a14.63,14.63,0,0,0-5.35.59c-3.84,1.16-4.71,5.9-4.71,5.9H73s2.43,1.21,2-2.9a3.77,3.77,0,0,0-.35-1.26C74,72.73,72.39,72,70.54,71.86Z"/><path class="cls-8" d="M109.67,115l.12,0,9.26-7.09,6.07-4.64-.64-.29a3.46,3.46,0,0,1-2-3.14h0l-7.67,5.84-7.66,5.82A3.64,3.64,0,0,0,109.67,115Z"/><path class="cls-9" d="M124.48,103.05l.64.29,2.5-4.27-5.17.84h0A3.46,3.46,0,0,0,124.48,103.05Z"/><path class="cls-6" d="M47.69,157.71c-5.92.24-11.34-8.3-11.39-8.39a1.5,1.5,0,1,0-2.55,1.59c.26.4,6.2,9.81,13.67,9.81h.41a1.5,1.5,0,1,0-.14-3Z"/><path class="cls-6" d="M106.79,121a1.51,1.51,0,0,0-1.5-1.49h0a1.51,1.51,0,0,0-1.49,1.52c0,2.46-.07,4.78-.23,6.92l3,0C106.77,125.29,106.8,122.79,106.79,121Z"/><polygon class="cls-10" points="120.56 128.22 106.6 127.97 103.56 127.92 101.41 127.88 93.12 127.73 91.41 129.36 53.49 165.33 50.31 168.34 49.91 168.73 54.61 168.73 94.24 131.5 208.24 133.5 208.24 129.75 120.56 128.22"/><polygon class="cls-11" points="94.24 131.5 54.61 168.73 158.12 168.73 162.83 168.73 208.24 133.5 94.24 131.5"/><path class="cls-12" d="M53.75,39.53C42.06,39.22,30.28,27.11,30.16,27A1.5,1.5,0,0,0,28,29.07c.51.53,12.74,13.11,25.67,13.46h0a1.5,1.5,0,0,0,0-3Z"/><path class="cls-12" d="M16.61,14.34a1.5,1.5,0,0,0,.59-2,1.52,1.52,0,0,0-2-.6C14.7,12,3.88,18.11,7,37.27A1.49,1.49,0,0,0,8.5,38.53l.24,0A1.5,1.5,0,0,0,10,36.79C7.21,19.86,16.2,14.57,16.61,14.34Z"/></g></g></svg>