<svg xmlns="http://www.w3.org/2000/svg" viewBox="0 0 59.24 57.21"><defs><style>.cls-1{fill:#e3f3f3;}.cls-2,.cls-3{fill:none;}.cls-2{stroke:#cad1d3;stroke-linecap:round;stroke-miterlimit:10;stroke-width:3px;opacity:0.63;}.cls-4{fill:#333132;}</style></defs><title>hover-historieta</title><g id="Capa_2" data-name="Capa 2"><g id="Capa_1-2" data-name="Capa 1"><path class="cls-1" d="M0,10.14V33.42A10.14,10.14,0,0,0,10.14,43.56H25.39L26.56,55.3a2.13,2.13,0,0,0,4.09.57l4.79-12.08H49.09A10.15,10.15,0,0,0,59.24,33.65V10.14A10.15,10.15,0,0,0,49.09,0H10.14A10.14,10.14,0,0,0,0,10.14Z"/><path class="cls-2" d="M8.55,6.88,6.48,9.59a11.25,11.25,0,0,0-2.32,6.84V29.59A11.3,11.3,0,0,0,7,37l1.57,1.77"/><path class="cls-3" d="M28.14,27.07c-2.84-3-7.55-2.91-9.44-2.76l1.38,10,10.2-1.41C30.56,31.86,30.69,29.74,28.14,27.07Zm-4.49-2c.17,0,.37.49.46,1.13s0,1.19-.13,1.22-.37-.49-.46-1.14S23.49,25.07,23.65,25.05Zm-2.26,2.7c-.23,0-.49-.46-.58-1.11s0-1.2.26-1.23.49.47.58,1.11S21.63,27.72,21.39,27.75ZM26,32.19a1.61,1.61,0,1,1,1.37-1.81A1.6,1.6,0,0,1,26,32.19Z"/><path class="cls-3" d="M28.31,16.81l.22.12,0,4.55,2.77-3,7.39-.25L37.13,7.32l-15,3.2A15.81,15.81,0,0,0,28.31,16.81Z"/><path class="cls-3" d="M31.64,19.35l-4,4.3.06-6.22a16.67,16.67,0,0,1-6.46-6.73L17,11.61l1.64,11.86c2-.18,7-.26,10.16,3,2.57,2.68,2.68,4.94,2.42,6.24l9.3-1.28-1.7-12.33Z"/><path class="cls-4" d="M15.06,10.28l3.58,25.9,23.74-3.29L38.56,5.28Zm23.59,8-7.39.25-2.77,3,0-4.55-.22-.12a15.81,15.81,0,0,1-6.22-6.29l15-3.2Zm-19.95,6c1.89-.15,6.6-.2,9.44,2.76,2.55,2.67,2.42,4.79,2.14,5.79l-10.2,1.41Zm12.47,8.42c.26-1.3.15-3.56-2.42-6.24-3.14-3.28-8.17-3.2-10.16-3L17,11.61l4.27-.91a16.67,16.67,0,0,0,6.46,6.73l-.06,6.22,4-4.3,7.13-.23,1.7,12.33Z"/><path class="cls-4" d="M25.52,29a1.61,1.61,0,1,0,1.81,1.38A1.61,1.61,0,0,0,25.52,29Z"/><ellipse class="cls-4" cx="21.23" cy="26.58" rx="0.42" ry="1.18" transform="translate(-3.44 3.16) rotate(-7.88)"/><ellipse class="cls-4" cx="23.81" cy="26.22" rx="0.3" ry="1.18" transform="translate(-3.37 3.51) rotate(-7.88)"/></g></g></svg>