<svg xmlns="http://www.w3.org/2000/svg" viewBox="0 0 59.24 57.21"><defs><style>.cls-1{fill:#434345;}.cls-2{fill:#ec008c;}</style></defs><title>hover-coder</title><g id="Capa_2" data-name="Capa 2"><g id="Capa_1-2" data-name="Capa 1"><path class="cls-1" d="M0,10.14V33.42A10.14,10.14,0,0,0,10.14,43.56H25.39L26.56,55.3a2.13,2.13,0,0,0,4.09.57l4.79-12.08H49.09A10.15,10.15,0,0,0,59.24,33.65V10.14A10.15,10.15,0,0,0,49.09,0H10.14A10.14,10.14,0,0,0,0,10.14Z"/><path class="cls-2" d="M24.8,28a1.28,1.28,0,0,1,.89,1.27c0,1-.57,1.56-1.19,1.56a2.72,2.72,0,0,1-1.24-.35l-9.8-4.51a1.55,1.55,0,0,1,0-2.83l9.8-4.49a2.59,2.59,0,0,1,1.24-.37c.62,0,1.19.52,1.19,1.56a1.28,1.28,0,0,1-.89,1.27l-8.27,3.45Z"/><path class="cls-2" d="M33.61,13.76A1.33,1.33,0,0,1,35,12.84a1.4,1.4,0,0,1,1.46,1.36,2.63,2.63,0,0,1-.22.7l-6.6,15.28a1.36,1.36,0,0,1-1.39.92,1.43,1.43,0,0,1-1.49-1.37A3,3,0,0,1,27,29Z"/><path class="cls-2" d="M46.69,24.53l-8.26-3.45a1.27,1.27,0,0,1-.89-1.27c0-1,.57-1.56,1.19-1.56a2.62,2.62,0,0,1,1.24.37l9.8,4.49a1.56,1.56,0,0,1,0,2.83L40,30.45a2.75,2.75,0,0,1-1.24.35c-.62,0-1.19-.52-1.19-1.56A1.27,1.27,0,0,1,38.43,28Z"/></g></g></svg>