<svg width="341" height="537" viewBox="0 0 341 537" fill="none" xmlns="http://www.w3.org/2000/svg">
<g clip-path="url(#clip0)">
<path d="M113.617 244.832C104.069 243.719 93.7891 238.25 86.0075 224.164L106.297 211.048C106.297 211.048 109.479 222.749 118.232 220.682C126.984 218.616 131.36 205.484 138.521 197.932C144.393 191.732 150.806 186.915 158.206 185.214C155.882 183.353 153.607 181.764 151.602 180.253C147.949 177.655 143.954 175.574 139.73 174.069C137.547 174.955 135.238 175.492 132.888 175.659V176.47C132.888 176.47 132.092 187.598 122.337 188.393C112.583 189.188 110.609 175.675 110.609 175.675V172.272C109.074 172.831 107.466 173.163 105.835 173.258C104.531 173.336 103.227 173.101 102.032 172.574C96.7513 173.803 91.73 175.956 87.201 178.934C74.4705 187.678 67.596 204.371 64.668 215.5C63.2199 220.953 61.1512 233.671 59.4166 245.181C59.8353 245.056 60.2687 244.987 60.7056 244.975L113.617 244.832ZM63.8723 238.472C63.9837 237.614 66.5457 217.137 72.3063 202.018C78.3692 186.12 94.1232 176.978 95.6191 176.899L95.7464 179.284L93.8686 180.746L95.7464 179.284L96.6853 181.462C96.558 181.462 82.252 189.299 76.762 203.719C71.2719 218.139 68.6463 238.854 68.6144 239.061C68.5444 239.64 68.2645 240.173 67.8275 240.559C67.3906 240.946 66.8271 241.159 66.2434 241.159H65.9569C65.6425 241.122 65.3385 241.023 65.0629 240.867C64.7872 240.711 64.5453 240.502 64.3513 240.252C64.1573 240.002 64.015 239.716 63.9328 239.41C63.8506 239.105 63.83 238.786 63.8723 238.472Z" fill="#34945E"/>
<path d="M56.1704 267.645H56.3455C56.3455 267.471 56.2659 267.312 56.2341 267.137C56.1863 267.455 56.1704 267.645 56.1704 267.645Z" fill="#34945E"/>
<path d="M173.689 208.266C173.088 208.838 172.347 209.244 171.541 209.442C166.369 210.635 161.197 214.609 158.015 218.186C154.832 221.763 142.499 237.662 130.962 242.431C127.908 243.684 124.695 244.508 121.414 244.879H176.442C175.848 244.859 175.287 244.605 174.879 244.174C174.471 243.742 174.249 243.167 174.262 242.574V237.344C174.266 236.746 174.505 236.174 174.928 235.752C175.351 235.329 175.924 235.09 176.522 235.086H177.826C177.826 234.673 177.826 234.243 177.699 233.83C177.058 225.476 175.824 217.177 174.007 208.997L173.689 208.266Z" fill="#34945E"/>
<path d="M138.521 197.868C131.36 205.42 126.984 218.536 118.232 220.619C109.479 222.701 106.297 210.984 106.297 210.984L86.0076 224.164C93.7891 238.313 104.101 243.782 113.617 244.832H121.351C124.631 244.461 127.845 243.637 130.899 242.383C142.436 237.614 154.768 221.716 157.951 218.139C161.134 214.562 166.305 210.587 171.477 209.395C172.283 209.196 173.024 208.79 173.625 208.218L173.864 208.997C175.681 217.177 176.915 225.476 177.556 233.83C178.622 233.496 179.641 233.131 180.595 232.749C192.132 227.98 204.465 212.081 207.648 208.504C210.83 204.927 216.002 200.953 221.174 199.76C226.346 198.568 226.744 189.427 226.346 185.849C225.928 182.625 224.297 179.68 221.785 177.613C219.273 175.546 216.067 174.512 212.82 174.721C203.272 175.15 195.315 180.651 188.154 188.202C183.285 193.337 179.688 201.048 175.137 206.12C176.553 202.753 177.1 199.085 176.729 195.452C176.311 192.227 174.68 189.283 172.168 187.216C169.656 185.149 166.45 184.115 163.202 184.323C161.524 184.4 159.856 184.634 158.221 185.023C150.806 186.851 144.393 191.668 138.521 197.868ZM112.073 242.256H111.437C99.5338 242.256 90.0813 227.312 89.6835 226.66C89.482 226.395 89.3382 226.091 89.2613 225.768C89.1843 225.444 89.176 225.108 89.2367 224.781C89.2975 224.454 89.426 224.144 89.614 223.869C89.802 223.595 90.0454 223.363 90.3286 223.188C90.6117 223.013 90.9283 222.9 91.258 222.854C91.5878 222.809 91.9234 222.833 92.2433 222.925C92.5631 223.017 92.8603 223.174 93.1155 223.388C93.3708 223.601 93.5785 223.866 93.7254 224.164C93.8209 224.291 102.478 237.932 111.851 237.503C112.165 237.483 112.48 237.527 112.777 237.632C113.075 237.736 113.348 237.9 113.581 238.112C113.814 238.324 114.002 238.58 114.134 238.866C114.266 239.152 114.339 239.461 114.349 239.776C114.375 240.406 114.15 241.021 113.724 241.485C113.297 241.95 112.704 242.227 112.073 242.256ZM179.752 206.008C179.752 205.849 181.789 202.034 189.73 191.7C194.527 185.194 201.432 180.548 209.271 178.552C209.904 178.434 210.558 178.572 211.089 178.936C211.62 179.3 211.985 179.859 212.103 180.492C212.222 181.124 212.083 181.778 211.719 182.308C211.355 182.839 210.795 183.204 210.162 183.322C203.49 185.11 197.618 189.099 193.501 194.641C190.004 198.949 186.813 203.496 183.953 208.25C183.664 208.805 183.169 209.224 182.573 209.417C181.978 209.61 181.331 209.562 180.77 209.283C180.484 209.139 180.23 208.939 180.023 208.695C179.817 208.451 179.661 208.167 179.566 207.862C179.471 207.556 179.438 207.234 179.47 206.916C179.502 206.598 179.598 206.289 179.752 206.008Z" fill="#D1B091"/>
<path d="M234.159 244.832H60.7055C60.2686 244.844 59.8352 244.913 59.4166 245.038C58.4928 245.329 57.6861 245.907 57.1137 246.688C56.5413 247.468 56.2331 248.411 56.2339 249.378V266.453C56.2182 266.681 56.2182 266.909 56.2339 267.137C56.2339 267.312 56.2339 267.471 56.3453 267.645C56.6035 268.605 57.1701 269.453 57.9579 270.059C58.7458 270.665 59.7112 270.996 60.7055 271H317.783C318.38 271 318.972 270.882 319.524 270.654C320.077 270.425 320.578 270.09 321.001 269.668C321.423 269.246 321.759 268.745 321.987 268.193C322.216 267.641 322.334 267.05 322.334 266.453V249.378C322.334 248.413 322.025 247.473 321.452 246.695C320.88 245.917 320.074 245.342 319.151 245.054H234.095L234.159 244.832ZM316.637 246.867C317.404 246.871 318.138 247.177 318.68 247.719C319.222 248.26 319.529 248.994 319.533 249.76V265.658C319.529 266.424 319.222 267.158 318.68 267.7C318.138 268.241 317.404 268.547 316.637 268.552H132.888C132.122 268.547 131.39 268.241 130.85 267.699C130.31 267.156 130.007 266.423 130.007 265.658V249.76C130.007 248.995 130.31 248.262 130.85 247.72C131.39 247.177 132.122 246.871 132.888 246.867H316.637Z" fill="#D9D6D3"/>
<path d="M316.637 246.867H132.904C131.304 246.867 130.007 248.162 130.007 249.76V265.706C130.007 267.304 131.304 268.599 132.904 268.599H316.637C318.236 268.599 319.533 267.304 319.533 265.706V249.76C319.533 248.162 318.236 246.867 316.637 246.867Z" fill="#B2A9A7"/>
<path d="M323.225 241.541L340.73 177.471C341.127 175.976 341.127 174.403 340.73 172.908L323.225 241.541Z" fill="#CAD1D3"/>
<path d="M174.262 237.344V242.574C174.262 243.159 174.489 243.722 174.895 244.143C175.302 244.564 175.857 244.811 176.442 244.832H234.159L256.342 169.665C256.667 168.585 257.332 167.639 258.237 166.966C259.143 166.293 260.242 165.929 261.371 165.929H258.793C256.849 165.922 254.953 166.535 253.382 167.679C251.811 168.823 250.646 170.437 250.056 172.288L230.563 235.007H176.458C175.857 235.027 175.289 235.285 174.878 235.723C174.466 236.16 174.245 236.743 174.262 237.344ZM196.684 238.806H224.134V242.781H196.54L196.684 238.806Z" fill="#CAD1D3"/>
<path d="M340.825 172.479C341.024 171.705 341.043 170.896 340.881 170.113C340.719 169.331 340.38 168.595 339.891 167.964C339.401 167.332 338.773 166.82 338.055 166.467C337.338 166.115 336.549 165.931 335.749 165.929H261.371C260.242 165.929 259.143 166.293 258.237 166.966C257.332 167.639 256.667 168.585 256.342 169.665L234.159 244.832V245.054H322.398L323.289 241.541L340.793 172.908L340.825 172.479Z" fill="#A4ABB6"/>
<path d="M224.054 238.806H196.604V242.781H224.054V238.806Z" fill="#A4ABB6"/>
<path d="M179.895 65.5799C179.142 67.2142 177.976 68.6238 176.511 69.6695C175.045 70.7151 173.332 71.3604 171.541 71.5417C165.175 72.3366 157.617 62.0028 157.617 62.0028C157.617 62.0028 155.23 70.3493 143.693 71.1443C132.156 71.9392 121.621 73.6085 109.877 70.3493C100.361 67.7103 83.5568 54.0537 83.5568 54.0537C83.5568 54.0537 83.9547 77.5035 79.5786 84.6577C77.5746 87.8102 75.261 90.7553 72.6722 93.4494L74.0089 117.09C74.0089 117.09 114.985 127.074 149.199 126.279C182.33 125.5 186.563 117.63 186.801 117.122V115.007C179.996 117.707 172.779 119.224 165.462 119.491C157.139 119.491 146.907 112.941 146.907 107.615V84.3397H131.583V107.615C131.583 112.941 121.351 119.491 113.028 119.491C107.267 119.491 84.7344 116.311 84.7344 107.615V81.6052C84.7386 79.7513 85.4777 77.9745 86.7898 76.6635C88.102 75.3526 89.8805 74.6143 91.7362 74.6101H124.597C125.978 74.6153 127.327 75.0286 128.474 75.7981C129.621 76.5676 130.514 77.6588 131.042 78.9344H147.432C147.964 77.6588 148.861 76.5682 150.01 75.799C151.159 75.0299 152.51 74.6163 153.893 74.6101H186.022C186.022 72.8931 185.894 71.2714 185.847 69.8406C183.573 68.8751 181.541 67.4203 179.895 65.5799ZM139.253 114.721C145.364 112.893 154.259 112.972 154.911 119.491C155.564 126.009 151.729 124.101 151.729 124.101H131.742C131.742 124.101 133.142 116.549 139.253 114.721Z" fill="#D1B091"/>
<path d="M116.975 168.012C115.216 169.892 113.034 171.326 110.609 172.193V175.595C110.609 175.595 112.598 189.109 122.337 188.314C132.076 187.519 132.888 176.47 132.888 176.47V175.547L131.662 175.643C128.764 175.738 125.891 175.086 123.318 173.749C120.745 172.413 118.561 170.437 116.975 168.012Z" fill="#D1B091"/>
<path d="M124.597 79.3795H91.7363C91.1454 79.3795 90.5787 79.614 90.1609 80.0314C89.7431 80.4488 89.5084 81.0149 89.5084 81.6052V107.615C89.5084 110.127 103.337 114.721 113.028 114.721C120.109 114.721 126.666 109.3 126.809 107.615V81.6052C126.809 81.0177 126.576 80.4539 126.162 80.037C125.748 79.62 125.185 79.3837 124.597 79.3795ZM118.423 110.413C117.164 110.413 115.933 110.04 114.886 109.341C113.84 108.642 113.024 107.649 112.542 106.487C112.06 105.325 111.934 104.046 112.18 102.813C112.425 101.579 113.032 100.446 113.922 99.5568C114.812 98.6674 115.946 98.0617 117.181 97.8164C118.416 97.571 119.695 97.6969 120.859 98.1782C122.022 98.6596 123.016 99.4746 123.715 100.52C124.415 101.566 124.788 102.796 124.788 104.053C124.788 105.74 124.117 107.358 122.924 108.55C121.73 109.743 120.111 110.413 118.423 110.413Z" fill="white"/>
<path d="M151.681 81.6052V107.615C151.824 109.3 158.38 114.721 165.462 114.721C175.153 114.721 188.966 110.127 188.966 107.615V81.6052C188.966 81.0177 188.733 80.4539 188.319 80.037C187.904 79.62 187.342 79.3837 186.754 79.3795H153.893C153.305 79.3837 152.742 79.62 152.328 80.037C151.914 80.4539 151.681 81.0177 151.681 81.6052ZM177.142 97.5829C178.401 97.5829 179.632 97.9558 180.678 98.6546C181.725 99.3534 182.541 100.347 183.023 101.509C183.505 102.671 183.631 103.949 183.385 105.183C183.139 106.416 182.533 107.549 181.643 108.439C180.753 109.328 179.619 109.934 178.384 110.179C177.149 110.425 175.869 110.299 174.706 109.817C173.543 109.336 172.549 108.521 171.85 107.475C171.15 106.429 170.777 105.2 170.777 103.942C170.777 103.106 170.942 102.277 171.263 101.505C171.584 100.732 172.054 100.031 172.647 99.4398C173.24 98.8491 173.943 98.381 174.717 98.0624C175.491 97.7437 176.321 97.5808 177.158 97.5829H177.142Z" fill="white"/>
<path d="M147.432 78.9343H131.042C130.514 77.6588 129.621 76.5676 128.474 75.7981C127.327 75.0286 125.978 74.6153 124.597 74.61H91.7363C89.8806 74.6142 88.1021 75.3526 86.7899 76.6635C85.4777 77.9745 84.7387 79.7513 84.7345 81.6052V107.615C84.7345 116.39 107.268 119.491 113.028 119.491C121.351 119.491 131.583 112.941 131.583 107.615V84.3397H146.907V107.615C146.907 112.941 157.139 119.491 165.462 119.491C172.779 119.224 179.996 117.707 186.802 115.007C190.812 113.195 193.74 110.778 193.74 107.615V81.6052C193.74 79.7527 193.004 77.9759 191.695 76.6645C190.385 75.3531 188.608 74.6143 186.754 74.61H153.893C152.51 74.6163 151.159 75.0299 150.01 75.799C148.861 76.5682 147.964 77.6587 147.432 78.9343ZM126.745 107.551C126.602 109.236 120.046 114.658 112.964 114.658C103.273 114.658 89.4448 110.063 89.4448 107.551V81.6052C89.4448 81.0149 89.6795 80.4488 90.0973 80.0314C90.5151 79.614 91.0818 79.3795 91.6726 79.3795H124.597C125.185 79.3837 125.748 79.62 126.162 80.037C126.576 80.4539 126.809 81.0177 126.809 81.6052L126.745 107.551ZM186.754 79.3795C187.342 79.3837 187.904 79.62 188.319 80.037C188.733 80.4539 188.966 81.0177 188.966 81.6052V107.615C188.966 110.127 175.153 114.721 165.462 114.721C158.381 114.721 151.824 109.3 151.681 107.615V81.6052C151.681 81.0177 151.914 80.4539 152.328 80.037C152.742 79.62 153.305 79.3837 153.893 79.3795H186.754Z" fill="black"/>
<path d="M154.896 119.491C154.243 112.972 145.348 112.893 139.237 114.721C133.126 116.549 131.742 124.101 131.742 124.101H151.681C151.681 124.101 155.548 126.025 154.896 119.491Z" fill="#BD886D"/>
<path d="M118.423 110.429C121.973 110.429 124.851 107.553 124.851 104.006C124.851 100.458 121.973 97.5829 118.423 97.5829C114.872 97.5829 111.994 100.458 111.994 104.006C111.994 107.553 114.872 110.429 118.423 110.429Z" fill="#333132"/>
<path d="M177.158 110.429C180.709 110.429 183.587 107.553 183.587 104.006C183.587 100.458 180.709 97.5829 177.158 97.5829C173.608 97.5829 170.729 100.458 170.729 104.006C170.729 107.553 173.608 110.429 177.158 110.429Z" fill="#333132"/>
<path d="M60.5623 102.098C60.7582 102.88 61.1547 103.598 61.7128 104.181C62.2709 104.763 62.9712 105.191 63.7449 105.421C63.9559 105.452 64.1457 105.566 64.2726 105.738C64.3994 105.909 64.4529 106.124 64.4212 106.335C64.3896 106.546 64.2754 106.735 64.1038 106.862C63.9322 106.989 63.7172 107.042 63.5062 107.01H63.2675C62.1975 106.693 61.2299 106.1 60.4618 105.29C59.6937 104.481 59.1521 103.484 58.8914 102.4C58.3544 102.416 57.818 102.352 57.3001 102.209C56.3803 101.94 55.5714 101.383 54.9927 100.619C55.022 103.235 56.0828 105.734 57.9448 107.574C59.8068 109.413 62.3198 110.445 64.9384 110.444V100.063C63.5981 100.971 62.1206 101.658 60.5623 102.098Z" fill="#D1B091"/>
<path d="M110.609 172.193C113.034 171.326 115.216 169.892 116.974 168.012C118.57 170.422 120.759 172.382 123.331 173.705C125.903 175.027 128.771 175.667 131.662 175.563L132.887 175.468C135.238 175.301 137.547 174.764 139.73 173.878C141.715 173.173 143.473 171.949 144.822 170.333C149.857 173.771 155.831 175.575 161.929 175.5C164.502 175.489 166.988 174.573 168.952 172.913C170.916 171.253 172.233 168.955 172.67 166.422C174.424 168.327 176.718 169.652 179.246 170.221C181.774 170.789 184.415 170.573 186.817 169.602C195.744 166.422 192.96 157.678 192.96 157.678C192.96 157.678 203.701 158.87 204.099 150.524C204.497 142.177 204.894 126.677 198.529 121.51C192.164 116.343 186.817 117.106 186.817 117.106C186.578 117.615 182.345 125.484 149.214 126.263C114.985 127.074 74.0086 117.09 74.0086 117.09L72.7356 93.4494C75.3244 90.7553 77.6379 87.8102 79.6419 84.6577C84.018 77.5035 83.5565 54.0537 83.5565 54.0537C83.5565 54.0537 100.297 67.7103 109.813 70.3493C121.557 73.529 132.092 71.9392 143.629 71.1443C155.166 70.3493 157.616 62.0028 157.616 62.0028C157.616 62.0028 165.175 72.3366 171.54 71.5417C173.332 71.3604 175.045 70.7151 176.51 69.6695C177.976 68.6238 179.142 67.2142 179.895 65.5799C181.547 67.3973 183.579 68.83 185.846 69.777C187.238 70.3388 188.749 70.5358 190.238 70.3493C195.808 69.5544 200.184 60.413 195.41 56.041C190.636 51.669 186.992 42.5276 184.892 37.3607C182.791 32.1938 177.906 25.8345 168.358 16.2956C158.81 6.75672 136.531 0 117.833 0C99.1355 0 78.0506 4.37199 75.2658 13.116C70.4918 10.3338 58.557 13.9109 50.6004 24.6421C42.6438 35.3734 46.6221 63.9901 45.8264 73.9264C45.0308 83.8628 33.8916 92.2093 41.8481 96.9788C49.8047 101.748 55.7722 90.6195 55.7722 90.6195C55.7722 90.6195 52.4781 97.2331 55.0561 100.588C55.6348 101.351 56.4437 101.908 57.3635 102.177C57.8814 102.32 58.4178 102.385 58.9548 102.368C58.6677 101.246 58.6189 100.076 58.8116 98.9342C58.8539 98.7267 58.9759 98.544 59.1513 98.4252C59.3268 98.3064 59.5418 98.2608 59.7505 98.2983C59.8539 98.3172 59.9524 98.3567 60.0401 98.4146C60.1279 98.4725 60.203 98.5475 60.261 98.6351C60.3189 98.7227 60.3586 98.8211 60.3775 98.9245C60.3964 99.0278 60.3942 99.1338 60.3711 99.2363C60.2307 100.203 60.2903 101.187 60.5461 102.13C62.1266 101.696 63.626 101.009 64.9859 100.095V147.344C64.9859 147.344 64.047 157.757 70.2691 159.268C77.971 161.112 81.2332 155.595 81.2332 155.595C81.2332 155.595 79.0054 165.341 86.3254 167.217C87.9941 167.732 89.7593 167.857 91.484 167.581C93.2087 167.306 94.8467 166.637 96.2712 165.627C97.2177 168.576 99.2787 171.04 102.016 172.495C103.211 173.022 104.515 173.256 105.819 173.179C107.455 173.085 109.069 172.753 110.609 172.193ZM111.277 130.365C119.854 130.365 126.809 136.184 126.809 143.354C126.809 150.524 119.854 156.327 111.277 156.327C102.7 156.327 95.746 150.524 95.746 143.354C95.746 136.184 102.652 130.365 111.277 130.365ZM124.469 67.599C103.83 67.0584 84.3681 47.0585 83.5565 46.2159C83.1731 45.7517 82.9796 45.1598 83.0147 44.559C83.0499 43.9582 83.3111 43.3929 83.7461 42.9764C84.181 42.56 84.7575 42.3233 85.3598 42.3137C85.9622 42.3042 86.5459 42.5226 86.9938 42.925C87.1847 43.1158 105.93 62.3685 124.533 62.8613C125.166 62.8613 125.773 63.1126 126.221 63.5598C126.668 64.007 126.92 64.6136 126.92 65.246C126.92 65.8785 126.668 66.4851 126.221 66.9323C125.773 67.3795 125.166 67.6308 124.533 67.6308L124.469 67.599ZM156.964 53.4973C156.805 53.5129 156.645 53.5129 156.487 53.4973C155.937 53.4944 155.405 53.3035 154.979 52.9564C154.554 52.6092 154.26 52.1268 154.147 51.5895C154.147 51.3987 150.137 32.5117 137.9 29.3321C137.288 29.1677 136.767 28.7671 136.45 28.2185C136.134 27.6699 136.049 27.0182 136.213 26.4068C136.378 25.7955 136.779 25.2744 137.328 24.9584C137.877 24.6424 138.529 24.5572 139.141 24.7216C154.243 28.8234 158.651 49.8089 158.826 50.7151C158.888 51.0211 158.89 51.3363 158.83 51.6428C158.77 51.9493 158.65 52.241 158.477 52.501C158.304 52.7611 158.082 52.9844 157.822 53.1581C157.562 53.3318 157.271 53.4525 156.964 53.5132V53.4973ZM54.9128 58.4893C55.0138 59.1133 54.8627 59.7518 54.4927 60.2646C54.1227 60.7773 53.5641 61.1223 52.9396 61.2238H52.5577C51.984 61.2434 51.4226 61.0544 50.9778 60.6919C50.5329 60.3293 50.2349 59.8179 50.1389 59.2524C45.174 28.7916 62.392 19.0778 63.124 18.6167C63.679 18.3111 64.3328 18.2381 64.9416 18.414C65.5504 18.59 66.0643 19.0003 66.3703 19.5547C66.6763 20.1092 66.7493 20.7624 66.5732 21.3706C66.3971 21.9788 65.9864 22.4923 65.4314 22.798C64.779 23.1636 50.4731 31.5737 54.9128 58.4893Z" fill="#333132"/>
<path d="M111.278 156.342C119.855 156.342 126.809 150.54 126.809 143.37C126.809 136.2 119.855 130.365 111.278 130.365C102.7 130.365 95.7463 136.184 95.7463 143.354C95.7463 150.524 102.653 156.342 111.278 156.342ZM104.244 141.398C104.503 141.22 104.794 141.095 105.102 141.029C105.409 140.964 105.727 140.96 106.036 141.018C106.345 141.076 106.639 141.194 106.903 141.365C107.166 141.537 107.393 141.759 107.57 142.018C107.948 142.745 108.49 143.374 109.153 143.857C109.815 144.339 110.581 144.662 111.389 144.8C113.521 144.912 115.686 142.718 116.354 141.891C116.744 141.387 117.319 141.059 117.952 140.978C118.584 140.898 119.223 141.072 119.727 141.462C120.232 141.852 120.56 142.426 120.641 143.058C120.722 143.69 120.548 144.328 120.157 144.832C119.775 145.325 116.322 149.602 111.548 149.602H111.309C108.35 149.443 105.835 147.853 103.623 144.673C103.278 144.155 103.15 143.521 103.266 142.909C103.382 142.297 103.733 141.755 104.244 141.398Z" fill="#D1B091"/>
<path d="M65.957 241.159H66.2434C66.8271 241.159 67.3907 240.946 67.8276 240.559C68.2645 240.173 68.5444 239.64 68.6145 239.061C68.6145 238.854 71.2242 218.282 76.762 203.719C82.2998 189.156 96.558 181.462 96.6853 181.462L95.7464 179.283L93.8687 180.746L95.7464 179.283L95.6191 176.899C94.1233 176.899 78.3692 186.104 72.3063 202.018C66.5458 217.137 63.9837 237.614 63.8724 238.472C63.83 238.786 63.8506 239.105 63.9328 239.41C64.0151 239.716 64.1573 240.002 64.3514 240.252C64.5454 240.502 64.7873 240.711 65.0629 240.867C65.3386 241.023 65.6425 241.122 65.957 241.159Z" fill="#C7D68F"/>
<path d="M111.851 237.503C102.478 237.932 93.8209 224.291 93.7255 224.164C93.5735 223.873 93.363 223.616 93.1071 223.41C92.8512 223.204 92.5555 223.052 92.2384 222.966C91.9212 222.879 91.5897 222.859 91.2643 222.906C90.939 222.954 90.627 223.068 90.3479 223.241C90.0687 223.415 89.8284 223.644 89.6421 223.914C89.4558 224.185 89.3274 224.491 89.265 224.814C89.2027 225.136 89.2076 225.468 89.2796 225.788C89.3517 226.109 89.4892 226.411 89.6835 226.676C90.0813 227.328 99.5338 242.272 111.437 242.272H112.073C112.704 242.243 113.297 241.966 113.724 241.501C114.15 241.036 114.375 240.422 114.349 239.792C114.341 239.476 114.269 239.165 114.138 238.877C114.007 238.589 113.82 238.331 113.586 238.117C113.353 237.903 113.079 237.739 112.781 237.633C112.483 237.528 112.166 237.483 111.851 237.503Z" fill="#F4DBB8"/>
<path d="M63.3471 106.947H63.5858C63.7968 106.979 64.0118 106.925 64.1834 106.798C64.355 106.672 64.4692 106.482 64.5008 106.271C64.5325 106.06 64.479 105.846 64.3522 105.674C64.2253 105.503 64.0355 105.389 63.8245 105.357C63.0509 105.127 62.3505 104.7 61.7924 104.117C61.2343 103.534 60.8378 102.817 60.6419 102.034C60.3861 101.092 60.3265 100.107 60.4668 99.1409C60.49 99.0384 60.4922 98.9324 60.4733 98.8291C60.4544 98.7257 60.4147 98.6273 60.3567 98.5397C60.2988 98.4521 60.2237 98.3771 60.1359 98.3192C60.0482 98.2613 59.9497 98.2218 59.8462 98.2029C59.6376 98.1654 59.4226 98.211 59.2471 98.3298C59.0717 98.4486 58.9497 98.6313 58.9074 98.8388C58.7147 99.9809 58.7635 101.151 59.0506 102.273C59.2944 103.36 59.8195 104.363 60.5736 105.184C61.3276 106.004 62.284 106.612 63.3471 106.947Z" fill="#F4DBB8"/>
<path d="M180.802 209.204C181.362 209.483 182.01 209.531 182.605 209.338C183.2 209.144 183.696 208.725 183.985 208.17C186.845 203.417 190.035 198.869 193.533 194.562C197.65 189.019 203.521 185.03 210.194 183.242C210.507 183.184 210.806 183.064 211.073 182.89C211.341 182.716 211.571 182.492 211.751 182.229C211.931 181.966 212.058 181.67 212.124 181.359C212.19 181.047 212.194 180.725 212.135 180.412C212.077 180.099 211.957 179.801 211.783 179.534C211.609 179.267 211.384 179.037 211.121 178.856C210.858 178.676 210.562 178.55 210.25 178.484C209.938 178.418 209.616 178.414 209.303 178.473C201.463 180.457 194.552 185.091 189.745 191.589C181.789 201.954 179.847 205.77 179.768 205.897C179.609 206.18 179.51 206.492 179.477 206.815C179.443 207.137 179.476 207.463 179.573 207.773C179.669 208.082 179.828 208.369 180.04 208.615C180.251 208.861 180.511 209.061 180.802 209.204Z" fill="#F4DBB8"/>
<path d="M124.533 62.8454C105.931 62.3526 87.1851 43.0999 86.9941 42.925C86.5462 42.5226 85.9625 42.3042 85.3602 42.3137C84.7578 42.3233 84.1813 42.56 83.7464 42.9764C83.3115 43.3929 83.0502 43.9582 83.0151 44.559C82.9799 45.1598 83.1734 45.7517 83.5569 46.2159C84.3684 47.0585 103.83 67.0584 124.406 67.6149C125.039 67.6149 125.646 67.3636 126.094 66.9164C126.541 66.4692 126.793 65.8626 126.793 65.2301C126.793 64.5977 126.541 63.9911 126.094 63.5439C125.646 63.0967 125.039 62.8454 124.406 62.8454H124.533Z" fill="#434345"/>
<path d="M111.262 149.57H111.5C116.274 149.57 119.727 145.325 120.109 144.8C120.478 144.301 120.637 143.678 120.553 143.064C120.469 142.449 120.149 141.891 119.661 141.509C119.172 141.126 118.553 140.949 117.936 141.014C117.319 141.08 116.751 141.383 116.354 141.859C115.686 142.686 113.521 144.88 111.389 144.769C110.581 144.631 109.815 144.308 109.153 143.825C108.49 143.342 107.948 142.713 107.57 141.986C107.213 141.464 106.663 141.104 106.041 140.986C105.419 140.868 104.775 141.002 104.252 141.358C103.729 141.715 103.368 142.264 103.25 142.886C103.133 143.507 103.267 144.15 103.623 144.673C105.835 147.853 108.35 149.443 111.262 149.57Z" fill="#F4DBB8"/>
<path d="M65.4318 22.7979C65.9868 22.4922 66.3975 21.9788 66.5736 21.3706C66.7497 20.7624 66.6767 20.1092 66.3707 19.5547C66.0647 19.0003 65.5508 18.5899 64.942 18.414C64.3332 18.2381 63.6794 18.311 63.1244 18.6167C62.3924 19.0778 45.1744 28.7915 50.1393 59.2524C50.2276 59.8181 50.5181 60.3327 50.9569 60.701C51.3957 61.0693 51.9532 61.2663 52.5262 61.2556H52.9082C53.2234 61.2093 53.5261 61.1005 53.7986 60.9355C54.071 60.7705 54.3077 60.5527 54.4945 60.2948C54.6814 60.037 54.8147 59.7445 54.8866 59.4344C54.9585 59.1243 54.9676 58.8029 54.9132 58.4893C50.4734 31.5737 64.7794 23.1636 65.4318 22.7979Z" fill="#434345"/>
<path d="M139.142 24.7693C138.53 24.6049 137.877 24.69 137.328 25.0061C136.779 25.3221 136.378 25.8431 136.213 26.4545C136.049 27.0659 136.134 27.7176 136.45 28.2662C136.767 28.8148 137.288 29.2153 137.9 29.3798C150.138 32.6548 154.116 51.4623 154.148 51.6372C154.26 52.1745 154.554 52.6569 154.98 53.0041C155.405 53.3512 155.937 53.5421 156.487 53.545C156.646 53.5606 156.806 53.5606 156.964 53.545C157.274 53.4845 157.569 53.3628 157.831 53.187C158.093 53.0112 158.317 52.7848 158.491 52.5212C158.664 52.2577 158.783 51.9621 158.841 51.652C158.898 51.3418 158.893 51.0233 158.826 50.7151C158.651 49.8089 154.243 28.8233 139.142 24.7693Z" fill="#434345"/>
</g>
<g clip-path="url(#clip1)">
<path d="M166.526 344.094C166.53 344.73 166.283 345.342 165.838 345.796C165.393 346.25 164.786 346.509 164.151 346.517C163.52 346.513 162.917 346.262 162.47 345.818C162.023 345.374 161.767 344.772 161.759 344.142C161.759 341.24 161.759 337.255 162.062 332.982L139.742 332.584C138.103 340.676 137.689 348.968 138.514 357.183C138.828 360.075 140.109 362.777 142.149 364.851L156.912 353.548L157.104 353.548C158.282 353.918 159.311 354.654 160.042 355.649C160.773 356.643 161.168 357.846 161.169 359.08L148.957 368.359C155.334 369.746 162.62 367.594 165.872 363.193C170.56 356.816 167.802 341.32 170.273 333.078L166.845 333.078C166.638 336.474 166.494 340.172 166.526 344.094Z" fill="#D1B091"/>
<path d="M195.606 321.934C198.38 327.386 203.913 331.499 210.609 329.905C221.466 327.386 231.096 304.812 244.089 306.932C257.083 309.052 266.075 324.899 266.075 324.899L289.99 306.932C271.496 280.467 260.304 273.452 246.784 273.452L186.343 330.846C192.185 333.817 197.763 337.279 203.02 341.193C200.237 336.995 198.163 332.369 196.882 327.498C196.403 325.872 195.989 324.006 195.606 321.934ZM255.744 280.786L256.398 280.786C268.307 280.786 277.777 295.788 278.192 296.426C278.358 296.693 278.471 296.99 278.522 297.3C278.574 297.61 278.564 297.928 278.493 298.234C278.422 298.541 278.291 298.83 278.108 299.086C277.925 299.342 277.693 299.559 277.427 299.726C277.16 299.892 276.862 300.004 276.552 300.056C276.242 300.108 275.924 300.098 275.618 300.027C275.311 299.956 275.022 299.825 274.766 299.642C274.51 299.459 274.293 299.228 274.126 298.961C274.047 298.817 265.405 285.202 255.967 285.585C255.653 285.599 255.339 285.552 255.043 285.445C254.748 285.339 254.476 285.175 254.243 284.963C254.011 284.751 253.822 284.496 253.689 284.212C253.555 283.927 253.479 283.619 253.464 283.305C253.449 282.991 253.497 282.677 253.603 282.381C253.71 282.086 253.874 281.814 254.086 281.581C254.297 281.349 254.553 281.16 254.837 281.027C255.122 280.893 255.43 280.817 255.744 280.802L255.744 280.786Z" fill="#D1B091"/>
<path d="M289.926 306.916L266.011 324.883C266.011 324.883 256.94 309.052 244.026 306.916C231.112 304.78 221.466 327.37 210.545 329.889C203.849 331.484 198.317 327.386 195.543 321.918C195.925 323.991 196.34 325.856 196.754 327.402C198.035 332.273 200.109 336.9 202.892 341.097C207.93 348.638 214.26 352.719 219.122 356.354C222.782 358.959 226.785 361.046 231.016 362.556C233.203 361.667 235.517 361.129 237.872 360.961L237.872 360.037C237.872 360.037 238.669 348.877 248.442 348.08C258.215 347.283 260.192 360.834 260.192 360.834L260.192 364.246C261.73 363.685 263.341 363.352 264.975 363.257C266.282 363.179 267.588 363.414 268.785 363.943C274.076 362.711 279.107 360.552 283.644 357.566C296.399 348.797 303.286 332.057 306.22 320.898C309.153 309.738 314.734 268.462 314.734 268.462L251.774 268.462L246.72 273.245C260.256 273.484 271.416 280.451 289.926 306.916ZM302.33 297.239C302.4 296.658 302.68 296.124 303.118 295.736C303.556 295.348 304.12 295.134 304.705 295.134L304.992 295.134C305.31 295.171 305.618 295.272 305.896 295.43C306.175 295.589 306.419 295.801 306.614 296.055C306.808 296.31 306.95 296.6 307.03 296.911C307.111 297.221 307.128 297.544 307.081 297.861C306.969 298.721 304.402 319.256 298.631 334.417C292.573 350.36 276.773 359.527 275.274 359.606L275.147 357.215L277.028 355.748L275.147 357.215L274.206 355.031C274.334 355.031 288.666 347.171 294.167 332.711C299.667 318.251 302.298 297.446 302.33 297.239Z" fill="#D70073"/>
<path d="M190.839 471.237C191.593 469.598 192.762 468.184 194.23 467.136C195.698 466.087 197.415 465.44 199.21 465.258C205.587 464.461 213.16 474.824 213.16 474.824C213.16 474.824 215.551 466.454 227.11 465.657C238.669 464.86 249.223 463.186 260.989 466.454C270.523 469.1 287.359 482.795 287.359 482.795C287.359 482.795 286.961 459.28 291.345 452.105C293.353 448.944 295.671 445.991 298.264 443.289L296.925 419.583C296.925 419.583 255.871 409.571 221.594 410.368C188.4 411.149 184.159 419.04 183.92 419.551L183.92 421.671C190.738 418.964 197.969 417.443 205.3 417.175C207.92 417.244 210.507 417.784 212.937 418.769C212.646 418.12 212.473 417.423 212.426 416.713C211.773 410.16 215.615 412.09 215.615 412.09L235.576 412.089C235.576 412.089 234.189 419.646 228.067 421.496C225.306 422.334 222.414 422.653 219.537 422.436C222.152 424.509 223.89 426.884 223.89 429.084L223.89 452.424L239.243 452.424L239.243 429.084C239.243 423.744 249.494 417.175 257.832 417.175C263.604 417.175 286.179 420.364 286.179 429.084L286.179 455.166C286.175 457.026 285.435 458.807 284.12 460.122C282.805 461.437 281.024 462.177 279.164 462.181L246.242 462.181C244.858 462.176 243.506 461.761 242.357 460.99C241.208 460.218 240.313 459.124 239.785 457.845L223.363 457.845C222.83 459.124 221.932 460.218 220.781 460.989C219.629 461.76 218.276 462.175 216.89 462.181L184.701 462.181C184.701 463.903 184.829 465.529 184.877 466.964C187.154 467.932 189.19 469.391 190.839 471.237Z" fill="#D1B091"/>
<path d="M253.879 368.518C255.64 366.633 257.826 365.195 260.256 364.325L260.256 360.914C260.256 360.914 258.263 347.362 248.506 348.16C238.749 348.957 237.935 360.037 237.935 360.037L237.935 360.961L239.163 360.866C242.067 360.77 244.946 361.424 247.523 362.765C250.101 364.105 252.289 366.087 253.879 368.518Z" fill="#D1B091"/>
<path d="M246.242 457.398L279.164 457.398C279.756 457.398 280.324 457.163 280.743 456.745C281.161 456.326 281.396 455.758 281.396 455.166L281.396 429.084C281.396 426.565 267.542 421.958 257.833 421.958C250.738 421.958 244.169 427.394 244.026 429.084L244.026 455.166C244.026 455.756 244.259 456.321 244.674 456.739C245.089 457.157 245.653 457.394 246.242 457.398ZM253.879 423.361C255.14 423.361 256.373 423.735 257.422 424.436C258.47 425.136 259.288 426.132 259.77 427.298C260.253 428.463 260.379 429.745 260.133 430.982C259.887 432.219 259.28 433.355 258.388 434.247C257.496 435.139 256.36 435.746 255.123 435.993C253.886 436.239 252.603 436.112 251.438 435.63C250.273 435.147 249.277 434.33 248.576 433.281C247.875 432.232 247.501 430.999 247.501 429.738C247.501 428.047 248.173 426.425 249.369 425.229C250.565 424.033 252.187 423.361 253.879 423.361Z" fill="white"/>
<path d="M219.107 455.166L219.107 429.084C218.963 427.394 212.394 421.958 205.3 421.958C201.58 422.027 197.88 422.508 194.267 423.393C195.788 423.466 197.231 424.081 198.338 425.127C199.444 426.172 200.141 427.578 200.3 429.092C200.46 430.606 200.074 432.127 199.21 433.38C198.347 434.634 197.063 435.537 195.592 435.927C194.121 436.317 192.558 436.167 191.187 435.506C189.816 434.844 188.727 433.714 188.117 432.32C187.506 430.926 187.415 429.359 187.858 427.903C188.302 426.447 189.252 425.198 190.536 424.381C185.546 425.88 181.752 427.761 181.752 429.164L181.752 455.166C181.752 455.756 181.985 456.321 182.4 456.739C182.815 457.157 183.379 457.394 183.968 457.398L216.89 457.398C217.48 457.394 218.043 457.157 218.458 456.739C218.874 456.321 219.107 455.756 219.107 455.166Z" fill="white"/>
<path d="M223.363 457.845L239.785 457.845C240.313 459.124 241.208 460.218 242.357 460.99C243.506 461.761 244.858 462.176 246.242 462.181L279.164 462.181C281.024 462.177 282.805 461.437 284.12 460.122C285.435 458.807 286.175 457.026 286.179 455.166L286.179 429.084C286.179 420.284 263.604 417.175 257.833 417.175C249.494 417.175 239.243 423.744 239.243 429.084L239.243 452.424L223.89 452.424L223.89 429.084C223.89 426.884 222.152 424.509 219.537 422.436C216.588 422.149 214.037 421.049 212.937 418.722C210.507 417.736 207.921 417.196 205.3 417.127C197.969 417.395 190.738 418.916 183.92 421.623C179.902 423.441 176.969 425.864 176.969 429.037L176.969 455.166C176.969 457.024 177.706 458.806 179.018 460.121C180.33 461.436 182.11 462.177 183.968 462.181L216.891 462.181C218.276 462.175 219.63 461.76 220.781 460.989C221.932 460.218 222.83 459.124 223.363 457.845ZM244.09 429.148C244.233 427.458 250.802 422.022 257.896 422.022C267.606 422.022 281.46 426.629 281.46 429.148L281.46 455.166C281.46 455.758 281.225 456.326 280.807 456.745C280.388 457.163 279.82 457.398 279.228 457.398L246.242 457.398C245.653 457.394 245.089 457.157 244.674 456.739C244.259 456.321 244.026 455.756 244.026 455.166L244.09 429.148ZM183.968 457.398C183.379 457.394 182.815 457.157 182.4 456.739C181.985 456.321 181.752 455.756 181.752 455.166L181.752 429.084C181.752 427.761 185.546 425.896 190.537 424.302C191.563 423.639 192.758 423.284 193.98 423.281L194.267 423.281C197.88 422.396 201.581 421.915 205.3 421.846C212.395 421.846 218.963 427.283 219.107 428.973L219.107 455.166C219.107 455.756 218.874 456.321 218.459 456.739C218.043 457.157 217.48 457.394 216.891 457.398L183.968 457.398Z" fill="black"/>
<path d="M253.895 423.361C250.337 423.361 247.454 426.245 247.454 429.802C247.454 433.359 250.337 436.243 253.895 436.243C257.452 436.243 260.336 433.359 260.336 429.802C260.336 426.245 257.452 423.361 253.895 423.361Z" fill="#333132"/>
<path d="M187.555 429.802C187.557 431.048 187.924 432.267 188.611 433.307C189.298 434.348 190.275 435.164 191.421 435.655C192.567 436.146 193.831 436.29 195.058 436.07C196.286 435.85 197.421 435.275 198.325 434.416C199.229 433.557 199.861 432.453 200.144 431.238C200.426 430.024 200.347 428.754 199.915 427.584C199.483 426.415 198.718 425.398 197.714 424.658C196.711 423.919 195.512 423.49 194.267 423.425L193.98 423.425C192.296 423.449 190.689 424.129 189.498 425.32C188.307 426.51 187.628 428.118 187.603 429.802L187.555 429.802Z" fill="#333132"/>
<path d="M310.397 434.616C310.201 433.832 309.804 433.112 309.244 432.528C308.685 431.944 307.984 431.515 307.208 431.284C306.997 431.253 306.807 431.138 306.68 430.966C306.553 430.794 306.499 430.579 306.531 430.368C306.563 430.156 306.677 429.966 306.849 429.839C307.021 429.712 307.236 429.658 307.448 429.69L307.687 429.69C308.763 430 309.738 430.592 310.509 431.405C311.28 432.218 311.819 433.222 312.071 434.314C312.609 434.297 313.147 434.362 313.665 434.505C314.587 434.775 315.397 435.334 315.977 436.099C315.948 433.476 314.885 430.97 313.019 429.125C311.154 427.281 308.636 426.246 306.013 426.247L306.013 436.657C307.356 435.747 308.836 435.058 310.397 434.616Z" fill="#D1B091"/>
<path d="M260.256 364.325C257.827 365.195 255.64 366.633 253.879 368.518C252.28 366.101 250.087 364.135 247.511 362.809C244.934 361.483 242.059 360.842 239.163 360.946L237.936 361.041C235.581 361.209 233.267 361.747 231.08 362.635C229.092 363.342 227.33 364.57 225.978 366.191C220.934 362.743 214.949 360.933 208.84 361.009C206.262 361.02 203.771 361.939 201.803 363.604C199.835 365.268 198.516 367.573 198.078 370.113C196.321 368.202 194.022 366.873 191.49 366.303C188.957 365.733 186.311 365.95 183.904 366.924C174.96 370.113 177.75 378.881 177.75 378.881C177.75 378.881 166.989 377.685 166.59 386.055C166.192 394.425 165.793 409.969 172.17 415.15C178.548 420.332 183.904 419.567 183.904 419.567C184.144 419.056 188.384 411.165 221.578 410.384C255.872 409.571 296.925 419.583 296.925 419.583L298.201 443.289C295.607 445.991 293.289 448.944 291.282 452.105C286.897 459.28 287.359 482.795 287.359 482.795C287.359 482.795 270.587 469.1 261.053 466.454C249.287 463.265 238.733 464.86 227.174 465.657C215.615 466.454 213.16 474.824 213.16 474.824C213.16 474.824 205.587 464.461 199.21 465.258C197.415 465.44 195.699 466.087 194.231 467.136C192.763 468.184 191.594 469.598 190.84 471.237C189.184 469.414 187.149 467.977 184.877 467.028C183.483 466.464 181.968 466.267 180.477 466.454C174.897 467.251 170.512 476.418 175.295 480.802C180.078 485.186 183.729 494.353 185.834 499.535C187.938 504.716 192.833 511.093 202.398 520.659C211.964 530.224 234.285 537 253.018 537C271.751 537 292.876 532.616 295.666 523.847C300.449 526.637 312.406 523.05 320.378 512.289C328.349 501.528 324.364 472.831 325.161 462.867C325.958 452.903 337.118 444.533 329.146 439.75C321.175 434.967 315.196 446.127 315.196 446.127C315.196 446.127 318.496 439.495 315.914 436.131C315.334 435.366 314.523 434.807 313.602 434.537C313.083 434.393 312.546 434.329 312.008 434.345C311.469 434.366 310.934 434.446 310.413 434.585C308.83 435.019 307.328 435.709 305.965 436.625L305.965 389.244C305.965 389.244 306.906 378.801 300.672 377.287C292.956 375.437 289.687 380.969 289.687 380.969C289.687 380.969 291.919 371.197 284.585 369.315C282.914 368.799 281.145 368.673 279.417 368.95C277.689 369.226 276.048 369.897 274.621 370.91C273.673 367.952 271.608 365.481 268.865 364.022C267.668 363.494 266.362 363.259 265.055 363.337C263.416 363.43 261.799 363.763 260.256 364.325ZM259.587 406.27C250.993 406.27 244.026 400.435 244.026 393.245C244.026 386.055 250.993 380.236 259.587 380.236C268.18 380.236 275.147 386.055 275.147 393.245C275.147 400.435 268.228 406.27 259.587 406.27ZM246.37 469.212C267.048 469.754 286.546 489.81 287.36 490.655C287.744 491.12 287.938 491.714 287.902 492.316C287.867 492.919 287.605 493.486 287.17 493.903C286.734 494.321 286.156 494.558 285.553 494.568C284.949 494.577 284.365 494.358 283.916 493.955C283.724 493.764 264.943 474.457 246.306 473.963C245.672 473.963 245.063 473.711 244.615 473.262C244.166 472.814 243.914 472.206 243.914 471.571C243.914 470.937 244.166 470.329 244.615 469.88C245.063 469.432 245.672 469.18 246.306 469.18L246.37 469.212ZM316.057 478.347C315.956 477.721 316.107 477.081 316.478 476.567C316.849 476.053 317.408 475.707 318.034 475.605L318.417 475.605C318.992 475.585 319.554 475.775 320 476.138C320.445 476.502 320.744 477.015 320.84 477.582C325.814 508.128 308.564 517.869 307.831 518.331C307.277 518.609 306.639 518.665 306.046 518.487C305.453 518.309 304.951 517.911 304.642 517.375C304.355 516.825 304.292 516.185 304.468 515.59C304.643 514.995 305.043 514.492 305.583 514.186C306.172 513.772 320.505 505.338 316.057 478.347Z" fill="#333132"/>
<path d="M259.586 380.22C250.993 380.22 244.026 386.039 244.026 393.229C244.026 400.419 250.993 406.27 259.586 406.27C268.18 406.27 275.147 400.435 275.147 393.245C275.147 386.055 268.227 380.22 259.586 380.22ZM266.633 395.206C266.374 395.385 266.082 395.511 265.774 395.576C265.465 395.641 265.147 395.645 264.838 395.588C264.528 395.53 264.233 395.412 263.969 395.239C263.706 395.067 263.478 394.845 263.301 394.584C262.922 393.856 262.379 393.225 261.715 392.741C261.051 392.257 260.284 391.933 259.475 391.795C257.354 391.795 255.17 393.883 254.5 394.712C254.109 395.217 253.533 395.547 252.9 395.627C252.266 395.708 251.626 395.534 251.12 395.142C250.615 394.751 250.286 394.176 250.205 393.542C250.124 392.908 250.299 392.268 250.69 391.763C251.073 391.268 254.532 386.98 259.315 386.98L259.554 386.98C262.52 387.139 265.039 388.734 267.255 391.922C267.601 392.442 267.729 393.077 267.613 393.691C267.497 394.305 267.145 394.848 266.633 395.206Z" fill="#D1B091"/>
<path d="M274.206 354.999L275.147 357.183L277.028 355.716L275.147 357.183L275.274 359.574C276.773 359.574 292.573 350.344 298.631 334.385C304.402 319.224 306.969 298.69 307.081 297.829C307.119 297.517 307.095 297.2 307.01 296.898C306.926 296.595 306.782 296.312 306.588 296.065C306.394 295.817 306.154 295.611 305.88 295.457C305.606 295.302 305.304 295.204 304.992 295.166L304.705 295.166C304.121 295.166 303.556 295.38 303.118 295.768C302.68 296.155 302.4 296.69 302.33 297.271C302.33 297.478 299.731 318.092 294.167 332.711C288.603 347.331 274.334 354.935 274.206 354.999Z" fill="#F282A9"/>
<path d="M307.607 429.754L307.368 429.754C307.156 429.722 306.941 429.776 306.769 429.903C306.597 430.03 306.483 430.22 306.451 430.431C306.419 430.643 306.473 430.858 306.6 431.03C306.727 431.202 306.917 431.316 307.129 431.348C307.904 431.579 308.605 432.007 309.165 432.592C309.724 433.176 310.121 433.896 310.317 434.68C310.838 434.542 311.373 434.462 311.912 434.441C311.677 433.347 311.154 432.336 310.397 431.512C309.64 430.688 308.677 430.081 307.607 429.754Z" fill="#F4DBB8"/>
<path d="M259.602 387.012L259.363 387.012C254.58 387.012 251.12 391.268 250.738 391.795C250.369 392.295 250.209 392.92 250.293 393.536C250.377 394.152 250.698 394.712 251.187 395.096C251.677 395.479 252.297 395.657 252.915 395.591C253.534 395.526 254.102 395.222 254.5 394.744C255.17 393.915 257.354 391.747 259.475 391.826C260.284 391.965 261.051 392.289 261.715 392.773C262.379 393.257 262.922 393.888 263.301 394.616C263.658 395.141 264.209 395.502 264.833 395.62C265.456 395.738 266.101 395.603 266.625 395.246C267.149 394.889 267.51 394.338 267.628 393.715C267.747 393.091 267.612 392.446 267.255 391.922C265.039 388.734 262.52 387.139 259.602 387.012Z" fill="#F4DBB8"/>
<path d="M219.537 422.436C222.414 422.653 225.306 422.334 228.067 421.496C234.189 419.646 235.576 412.089 235.576 412.089L215.615 412.089C215.615 412.089 211.741 410.16 212.426 416.713C212.494 417.41 212.683 418.09 212.984 418.722C214.021 421.049 216.588 422.213 219.537 422.436Z" fill="#BD886D"/>
<path d="M157.151 353.66L156.96 353.66L142.197 364.963L132.519 372.36L133.54 372.823C134.493 373.267 135.3 373.973 135.865 374.86C136.43 375.747 136.729 376.777 136.728 377.829L148.957 368.518L161.169 359.24C161.182 358.003 160.798 356.794 160.076 355.791C159.353 354.787 158.328 354.04 157.151 353.66Z" fill="#34945E"/>
<path d="M133.54 372.711L132.519 372.249L128.534 379.056L136.776 377.717C136.773 376.66 136.466 375.627 135.892 374.739C135.319 373.852 134.502 373.148 133.54 372.711Z" fill="#5F6E7D"/>
<path d="M255.967 285.569C265.406 285.186 274.047 298.801 274.126 298.945C274.293 299.212 274.51 299.443 274.766 299.626C275.022 299.809 275.312 299.94 275.618 300.011C275.924 300.082 276.242 300.092 276.552 300.04C276.863 299.989 277.16 299.876 277.427 299.71C277.694 299.543 277.925 299.326 278.108 299.07C278.291 298.814 278.422 298.525 278.493 298.218C278.564 297.912 278.574 297.594 278.522 297.284C278.471 296.974 278.358 296.677 278.192 296.41C277.777 295.772 268.307 280.77 256.398 280.77L255.744 280.77C255.43 280.785 255.122 280.861 254.837 280.995C254.553 281.129 254.297 281.317 254.086 281.549C253.874 281.782 253.71 282.054 253.603 282.349C253.497 282.645 253.449 282.959 253.464 283.273C253.479 283.587 253.555 283.895 253.689 284.18C253.823 284.464 254.011 284.72 254.243 284.931C254.476 285.143 254.748 285.307 255.043 285.414C255.339 285.52 255.653 285.567 255.967 285.553L255.967 285.569Z" fill="#F4DBB8"/>
<path d="M161.743 344.094C161.751 344.724 162.007 345.326 162.454 345.77C162.901 346.214 163.504 346.466 164.135 346.47C164.77 346.461 165.377 346.202 165.822 345.748C166.267 345.294 166.514 344.682 166.51 344.046C166.51 340.124 166.622 336.426 166.877 333.014L162.094 333.014C161.775 337.255 161.727 341.24 161.743 344.094Z" fill="#F4DBB8"/>
<path d="M139.789 332.584L162.046 332.982L166.893 333.062L170.321 333.126L183.537 333.365L186.264 330.766L246.72 273.42L251.79 268.622L252.428 268L244.934 268L181.752 327.354L-1.6063e-05 324.166L-1.55403e-05 330.144L139.789 332.584Z" fill="#E3F3F3"/>
<path d="M181.752 327.354L244.934 268L79.907 268L72.3978 268L-4.60551e-05 324.166L181.752 327.354Z" fill="#D9D6D3"/>
<path d="M246.306 473.979C264.943 474.473 283.724 493.78 283.916 493.955C284.364 494.358 284.949 494.577 285.553 494.568C286.156 494.558 286.734 494.321 287.169 493.903C287.605 493.486 287.867 492.919 287.902 492.316C287.937 491.714 287.743 491.12 287.359 490.655C286.546 489.81 267.048 469.754 246.433 469.196C245.799 469.196 245.191 469.448 244.742 469.896C244.294 470.345 244.042 470.953 244.042 471.587C244.042 472.222 244.294 472.83 244.742 473.278C245.191 473.727 245.799 473.979 246.433 473.979L246.306 473.979Z" fill="#434345"/>
<path d="M305.518 514.138C304.979 514.444 304.579 514.947 304.403 515.542C304.228 516.137 304.29 516.777 304.578 517.327C304.887 517.863 305.389 518.261 305.982 518.439C306.575 518.617 307.213 518.561 307.766 518.283C308.564 517.869 325.814 508.128 320.84 477.582C320.751 477.015 320.46 476.498 320.021 476.129C319.581 475.76 319.022 475.562 318.448 475.573L318.066 475.573C317.75 475.619 317.447 475.729 317.174 475.894C316.901 476.06 316.663 476.278 316.476 476.536C316.289 476.795 316.155 477.088 316.083 477.399C316.011 477.71 316.002 478.033 316.057 478.347C320.505 505.338 306.172 513.772 305.518 514.138Z" fill="#434345"/>
</g>
<defs>
<clipPath id="clip0">
<rect width="302" height="271" fill="white" transform="translate(39)"/>
</clipPath>
<clipPath id="clip1">
<rect width="332" height="269" fill="white" transform="translate(332 537) rotate(180)"/>
</clipPath>
</defs>
</svg>
