<svg xmlns="http://www.w3.org/2000/svg" viewBox="0 0 80.3 163.72"><defs><style>.cls-1{fill:#d1b091;}.cls-2{fill:#5c87ab;}.cls-3{fill:#d70073;}.cls-4{fill:#58465c;}.cls-5{fill:#fff;}.cls-6{fill:#333132;}.cls-7{fill:#f4dbb8;}.cls-8{fill:#bd886d;}.cls-9{fill:#434345;}.cls-10{fill:#8d7095;}.cls-11{fill:#88c1d3;}.cls-12{fill:#f282a9;}</style></defs><title>juampa</title><g id="Capa_2" data-name="Capa 2"><g id="Capa_1-2" data-name="Capa 1"><path class="cls-1" d="M62,125.17c.31,2.41.28,5.6-1.92,6.21a30,30,0,0,1-4.94.38V132s.12,12.46,7.29,10.63,1.08-38,1.08-38h-.08c1.19,8.23,1.81,20.52,1.81,20.52Zm-.64,15.52a1,1,0,0,1-.4.09,1,1,0,0,1-.92-.6,1,1,0,0,1,.52-1.32c1.78-.78,2.4-5.7,2.27-8.94a1,1,0,0,1,1-1,1,1,0,0,1,1,1C64.84,130.78,65.06,139.06,61.33,140.69Z"/><path class="cls-2" d="M62,125.17H23.82c-.18,2.1-.41,4.21-.7,6.24l3.94.1c-1.47,8.34-2.94,18-3.59,22.27l12.62,2.27V131.7l5.95.09v24.26l12.62-2.27c-.64-4.25-2.09-13.69-3.53-22,1.45,0,2.79,0,4-.06a30,30,0,0,0,4.94-.38C62.25,130.77,62.28,127.58,62,125.17ZM27.42,149a1,1,0,0,1-1,.86h-.14a1,1,0,0,1-.85-1.13l2.25-15.81a1,1,0,0,1,1.13-.85,1,1,0,0,1,.85,1.13Zm17.76,2.11a1,1,0,0,1-2,0v-16.3a1,1,0,0,1,2,0Z"/><path class="cls-3" d="M23.13,153.72s-7.7.33-9.67,2.33-1.65,7.67-1.65,7.67H36.09v-7.67l-12.62-2.27Zm1.41,7.66h0a1,1,0,0,1-1-1c0-.11-.08-2.18-3.11-3.4a1,1,0,0,1,.75-1.86c4.37,1.77,4.36,5.14,4.36,5.28A1,1,0,0,1,24.54,161.38Z"/><path class="cls-3" d="M42,163.72H66.32s.31-5.67-1.65-7.67S55,153.72,55,153.72l-.34.06L42,156.05Zm5.28-1.09-.48,0a3.86,3.86,0,0,1-3.39-1.39,3.78,3.78,0,0,1-.19-3.43,1,1,0,0,1,1.84.77,1.89,1.89,0,0,0,0,1.52c.27.39,1,.58,2.13.52a1,1,0,1,1,.1,2Z"/><path class="cls-4" d="M45.61,85.77s-.39,5.42-5.12,5.8-5.7-6.18-5.7-6.18V83.73a7.94,7.94,0,0,1-2.32.48,4,4,0,0,1-1.75-.28,19.51,19.51,0,0,0-5.94,2.6c-5.53,3.8-8.52,11.06-9.79,15.9s-3.69,22.74-3.69,22.74h1.64l2.49-19.73,9.11,1.94s.07,8.76-.72,17.79h41.4s-.62-12.29-1.81-20.52a45.35,45.35,0,0,0-.95-5c-2-7.45-6.57-10.21-9.7-12.55a20.2,20.2,0,0,0-4.29-2.35,11.27,11.27,0,0,1-2.86.57ZM20,97.87a1,1,0,0,1-1,.81l-.19,0a1,1,0,0,1-.79-1.17,12.9,12.9,0,0,1,8.06-9.72,1,1,0,1,1,.63,1.9A10.91,10.91,0,0,0,20,97.87ZM61.08,113a1,1,0,0,1-.74,1.86,35.93,35.93,0,0,0-11.82-1.68,95.78,95.78,0,0,0-16.12,1.73.71.71,0,0,1-.2,0,1,1,0,0,1-.2-2,95.49,95.49,0,0,1,16.52-1.77C56.37,111.13,60.89,112.88,61.08,113Z"/><path class="cls-1" d="M68.45,31.89a5,5,0,0,1-4.06,2.9c-3.09.39-6.76-4.64-6.76-4.64s-1.16,4.06-6.77,4.45-10.72,1.19-16.42-.39c-4.63-1.28-12.76-7.92-12.76-7.92s.19,11.4-1.93,14.88a28.06,28.06,0,0,1-3.36,4.27L17,56.94s19.9,4.85,36.53,4.46C69.6,61,71.68,57.21,71.8,57s0-.69,0-1a31.26,31.26,0,0,1-10.37,2.18,10.46,10.46,0,0,1-3.7-.76,2.94,2.94,0,0,1,.26,1c.32,3.18-1.55,2.24-1.55,2.24H46.76S47.43,56.9,50.4,56a11.07,11.07,0,0,1,4.13-.45,4.7,4.7,0,0,1-2.1-3.23V41H45V52.33c0,2.59-5,5.78-9,5.78-2.8,0-13.75-1.51-13.75-5.78V39.68a3.4,3.4,0,0,1,3.4-3.4h16a3.4,3.4,0,0,1,3.13,2.11h8a3.43,3.43,0,0,1,3.14-2.11H71.43c0-.83-.06-1.62-.09-2.35A8.19,8.19,0,0,1,68.45,31.89Z"/><path class="cls-1" d="M40.49,91.57c4.73-.38,5.12-5.8,5.12-5.8v-.44l-.59,0a8.22,8.22,0,0,1-7.14-3.67,7.82,7.82,0,0,1-3.09,2v1.66S35.75,92,40.49,91.57Z"/><path class="cls-5" d="M41.59,38.6h-16a1.09,1.09,0,0,0-1.08,1.08V52.33c0,1.22,6.72,3.46,11.43,3.46,3.44,0,6.62-2.64,6.69-3.46V39.68A1.08,1.08,0,0,0,41.59,38.6ZM37.88,55.11A3.13,3.13,0,1,1,41,52,3.13,3.13,0,0,1,37.88,55.11Z"/><path class="cls-5" d="M54.75,39.68V52.33c.07.82,3.25,3.46,6.69,3.46a24.27,24.27,0,0,0,5.35-.7,3.12,3.12,0,1,1,1.81-.48c2.42-.73,4.26-1.64,4.26-2.28V39.68a1.08,1.08,0,0,0-1.07-1.08h-16A1.08,1.08,0,0,0,54.75,39.68Z"/><path d="M52.68,38.39h-8a3.4,3.4,0,0,0-3.13-2.11h-16a3.4,3.4,0,0,0-3.4,3.4V52.33c0,4.27,11,5.78,13.75,5.78,4,0,9-3.19,9-5.78V41h7.45V52.33a4.7,4.7,0,0,0,2.1,3.23,3.71,3.71,0,0,1,3.21,1.79,10.46,10.46,0,0,0,3.7.76,31.26,31.26,0,0,0,10.37-2.18c2-.88,3.37-2.06,3.37-3.6V39.68a3.4,3.4,0,0,0-3.39-3.4h-16A3.43,3.43,0,0,0,52.68,38.39Zm-10,13.94c-.07.82-3.25,3.46-6.69,3.46-4.71,0-11.43-2.24-11.43-3.46V39.68a1.09,1.09,0,0,1,1.08-1.08h16a1.08,1.08,0,0,1,1.07,1.08ZM71.79,38.6a1.08,1.08,0,0,1,1.07,1.08V52.33c0,.64-1.84,1.55-4.26,2.28a3.13,3.13,0,0,1-1.68.5l-.13,0a24.27,24.27,0,0,1-5.35.7c-3.44,0-6.62-2.64-6.69-3.46V39.68a1.08,1.08,0,0,1,1.07-1.08Z"/><path class="cls-6" d="M37.88,48.86A3.13,3.13,0,1,0,41,52,3.13,3.13,0,0,0,37.88,48.86Z"/><path class="cls-6" d="M70.05,52a3.13,3.13,0,1,0-3.26,3.11l.13,0A3.15,3.15,0,0,0,70.05,52Z"/><path class="cls-1" d="M10.59,49.62a2.16,2.16,0,0,0,1.51,1.54.5.5,0,0,1-.15,1,.4.4,0,0,1-.15,0,3.16,3.16,0,0,1-2.21-2.34,2.13,2.13,0,0,1-.67-.1,2.22,2.22,0,0,1-1.12-.75,4.84,4.84,0,0,0,4.83,4.78v-5A7.76,7.76,0,0,1,10.59,49.62Z"/><path class="cls-6" d="M77.5,59.08C74.41,56.57,71.81,57,71.81,57h0c-.12.25-2.2,4.07-18.26,4.44C36.91,61.79,17,56.94,17,56.94l-.62-11.5a28.06,28.06,0,0,0,3.36-4.27c2.12-3.48,1.93-14.88,1.93-14.88s8.13,6.64,12.76,7.92c5.7,1.58,10.82.77,16.42.39s6.77-4.45,6.77-4.45,3.67,5,6.76,4.64a5,5,0,0,0,4.06-2.9,8.19,8.19,0,0,0,2.89,2,4.25,4.25,0,0,0,2.14.28c2.7-.39,4.83-4.83,2.51-7s-4.06-6.57-5.11-9.08-3.39-5.61-8-10.25S47.38,0,38.3,0,19,2.13,17.62,6.38C15.3,5,9.5,6.76,5.64,12S3.7,31.12,3.32,36s-5.8,8.89-1.93,11.21,6.76-3.09,6.76-3.09-1.6,3.21-.35,4.85a2.22,2.22,0,0,0,1.12.75,2.13,2.13,0,0,0,.67.1,3.62,3.62,0,0,0,1-.15,7.76,7.76,0,0,0,2-1v23s-.46,5.06,2.57,5.8a4.73,4.73,0,0,0,5.33-1.79S19.44,80.4,23,81.31a5.53,5.53,0,0,0,4.83-.77,5.74,5.74,0,0,0,2.89,3.39,4,4,0,0,0,1.75.28,7.94,7.94,0,0,0,2.32-.48,7.82,7.82,0,0,0,3.09-2A8.22,8.22,0,0,0,45,85.37l.59,0a11.27,11.27,0,0,0,2.86-.57,6,6,0,0,0,2.94-1.9,14.39,14.39,0,0,0,8.31,2.52,5.33,5.33,0,0,0,5.22-4.46,6.19,6.19,0,0,0,6.87,1.55,4.6,4.6,0,0,0,3-5.8s5.21.58,5.41-3.48S80.59,61.6,77.5,59.08Zm-36-26.36h0c-9.92-.26-19.33-9.95-19.73-10.36A1,1,0,0,1,23.2,21c.09.09,9.25,9.5,18.35,9.74a1,1,0,0,1,1,1A1,1,0,0,1,41.52,32.72Zm-34-4.25a1,1,0,0,1-.83,1.15H6.57a1,1,0,0,1-1-.84C3.18,14.09,11.45,9.39,11.8,9.2a1,1,0,1,1,1,1.75C12.44,11.13,5.39,15.25,7.56,28.47ZM35.12,76c-4.17,0-7.55-2.83-7.55-6.32S31,63.4,35.12,63.4s7.54,2.83,7.54,6.31S39.28,76,35.12,76Z"/><path class="cls-1" d="M42.66,69.71c0-3.48-3.38-6.31-7.54-6.31s-7.55,2.83-7.55,6.31S31,76,35.12,76,42.66,73.2,42.66,69.71Zm-3.38.62c-.07.09-1.78,2.25-4.06,2.25h-.11a4.54,4.54,0,0,1-3.58-2.29,1,1,0,1,1,1.65-1.13,2.69,2.69,0,0,0,2,1.42h0A3.87,3.87,0,0,0,37.7,69.1a1,1,0,0,1,1.58,1.23Z"/><path class="cls-7" d="M11.8,52.11a.4.4,0,0,0,.15,0,.5.5,0,0,0,.15-1,2.16,2.16,0,0,1-1.51-1.54,3.62,3.62,0,0,1-1,.15A3.16,3.16,0,0,0,11.8,52.11Z"/><path class="cls-7" d="M37.7,69.1a3.87,3.87,0,0,1-2.48,1.48h0a2.69,2.69,0,0,1-2-1.42,1,1,0,1,0-1.65,1.13,4.54,4.54,0,0,0,3.58,2.29h.11c2.28,0,4-2.16,4.06-2.25A1,1,0,0,0,37.7,69.1Z"/><path class="cls-8" d="M54.53,55.56A11.07,11.07,0,0,0,50.4,56c-3,.89-3.64,4.56-3.64,4.56h9.69s1.87.94,1.55-2.24a2.94,2.94,0,0,0-.26-1A3.71,3.71,0,0,0,54.53,55.56Z"/><path class="cls-9" d="M41.55,30.72c-9.1-.24-18.26-9.65-18.35-9.74a1,1,0,0,0-1.44,1.38c.4.41,9.81,10.1,19.73,10.36h0a1,1,0,0,0,1-1A1,1,0,0,0,41.55,30.72Z"/><path class="cls-9" d="M12.76,11a1,1,0,1,0-1-1.75c-.35.19-8.62,4.89-6.22,19.59a1,1,0,0,0,1,.84h.16a1,1,0,0,0,.83-1.15C5.39,15.25,12.44,11.13,12.76,11Z"/><path class="cls-1" d="M24.54,107.38l-9.11-1.94-2.49,19.73-1,7.9s-1.86,12.31,5.51,11.65c2.93-.27,4.65-6.23,5.66-13.31.29-2,.52-4.14.7-6.24C24.61,116.14,24.54,107.38,24.54,107.38Zm-4.66,32.91a1,1,0,0,1-1.37.34,1,1,0,0,1-.34-1.37S20,136.17,20.94,130s.55-19.18.54-19.31a1,1,0,0,1,2-.07c0,.53.44,13.17-.56,19.69S20,140.16,19.88,140.29Z"/><path class="cls-10" d="M27.38,88.4a1,1,0,0,0-1.27-.63,12.9,12.9,0,0,0-8.06,9.72,1,1,0,0,0,.79,1.17l.19,0a1,1,0,0,0,1-.81,10.91,10.91,0,0,1,6.73-8.2A1,1,0,0,0,27.38,88.4Z"/><path class="cls-7" d="M23.48,110.6a1,1,0,0,0-2,.07c0,.13.43,13-.54,19.31s-2.75,9.25-2.77,9.28a1,1,0,0,0,.34,1.37,1,1,0,0,0,1.37-.34c.09-.13,2-3.38,3-10S23.5,111.13,23.48,110.6Z"/><path class="cls-7" d="M63.76,128.89a1,1,0,0,0-1,1c.13,3.24-.49,8.16-2.27,8.94a1,1,0,0,0-.52,1.32,1,1,0,0,0,.92.6,1,1,0,0,0,.4-.09c3.73-1.63,3.51-9.91,3.47-10.85A1,1,0,0,0,63.76,128.89Z"/><path class="cls-10" d="M32,112.9a1,1,0,0,0,.2,2,.71.71,0,0,0,.2,0,95.78,95.78,0,0,1,16.12-1.73,35.93,35.93,0,0,1,11.82,1.68,1,1,0,0,0,.74-1.86c-.19-.07-4.71-1.82-12.56-1.82A95.49,95.49,0,0,0,32,112.9Z"/><path class="cls-11" d="M28.82,132.08a1,1,0,0,0-1.13.85l-2.25,15.81a1,1,0,0,0,.85,1.13h.14a1,1,0,0,0,1-.86l2.25-15.81A1,1,0,0,0,28.82,132.08Z"/><path class="cls-11" d="M44.18,133.83a1,1,0,0,0-1,1v16.3a1,1,0,0,0,2,0v-16.3A1,1,0,0,0,44.18,133.83Z"/><path class="cls-12" d="M21.18,155.12a1,1,0,0,0-.75,1.86c3,1.22,3.11,3.29,3.11,3.4a1,1,0,0,0,1,1h0a1,1,0,0,0,1-1C25.54,160.26,25.55,156.89,21.18,155.12Z"/><path class="cls-12" d="M47.22,160.64c-1.1.06-1.86-.13-2.13-.52a1.89,1.89,0,0,1,0-1.52,1,1,0,0,0-1.84-.77,3.78,3.78,0,0,0,.19,3.43,3.86,3.86,0,0,0,3.39,1.39l.48,0a1,1,0,1,0-.1-2Z"/></g></g></svg>