<svg xmlns="http://www.w3.org/2000/svg" xmlns:xlink="http://www.w3.org/1999/xlink" viewBox="0 0 80.3 95.7"><defs><style>.cls-1{fill:none;}.cls-2{fill:#fff200;}.cls-3{fill:#f15a29;}.cls-4{clip-path:url(#clip-path);}.cls-5{fill:#d1b091;}.cls-6{opacity:0.49;}.cls-7{fill:#fff;}.cls-8{fill:#231f20;}.cls-9{fill:#333132;}.cls-10{opacity:0.68;}.cls-11{fill:#f4dbb8;}.cls-12{fill:#bd886d;}.cls-13{fill:#434345;}</style><clipPath id="clip-path"><circle class="cls-1" cx="41.66" cy="55.11" r="34.41"/></clipPath></defs><title>logo-nav</title><g id="Capa_2" data-name="Capa 2"><g id="Capa_1-2" data-name="Capa 1"><circle class="cls-2" cx="41.66" cy="57.56" r="34.41"/><path class="cls-3" d="M41.66,94.47A36.91,36.91,0,1,1,78.57,57.56,37,37,0,0,1,41.66,94.47Zm0-68.82A31.91,31.91,0,1,0,73.57,57.56,32,32,0,0,0,41.66,25.65Z"/><g class="cls-4"><path class="cls-5" d="M34.71,83.33V89.5s1,6.57,5.7,6.19,5.12-5.8,5.12-5.8V84.65"/></g><path class="cls-5" d="M45.61,85.77V80.54s24-3.09,25.51-11.21,0-40.59,0-40.59-1.54-11.6-6.18-16.62-13-7-22.72-7.35a31.65,31.65,0,0,0-22.51,7.74c-5.41,4.63-6.89,15.07-7,18.55,0,0-.77,31.31,1.55,36.34s15.46,12,20.49,12.36v5.63"/><g class="cls-6"><path class="cls-7" d="M42.66,39.68V52.33c-.07.82-3.25,3.46-6.69,3.46-4.71,0-11.43-2.24-11.43-3.46V39.68a1.09,1.09,0,0,1,1.08-1.08h16A1.08,1.08,0,0,1,42.66,39.68Z"/></g><g class="cls-6"><path class="cls-7" d="M72.86,39.68V52.33c0,1.22-6.71,3.46-11.42,3.46-3.44,0-6.62-2.64-6.69-3.46V39.68a1.08,1.08,0,0,1,1.07-1.08h16A1.08,1.08,0,0,1,72.86,39.68Z"/></g><path class="cls-8" d="M42.66,52.33V39.68a1.08,1.08,0,0,0-1.07-1.08h-16a1.09,1.09,0,0,0-1.08,1.08V52.33c0,1.22,6.72,3.46,11.43,3.46C39.41,55.79,42.59,53.15,42.66,52.33Zm30.2-12.65a1.08,1.08,0,0,0-1.07-1.08h-16a1.08,1.08,0,0,0-1.07,1.08V52.33c.07.82,3.25,3.46,6.69,3.46,4.71,0,11.42-2.24,11.42-3.46Zm-1.07-3.4a3.4,3.4,0,0,1,3.39,3.4V52.33c0,4.27-10.94,5.78-13.74,5.78-4,0-9-3.19-9-5.78V41H45V52.33c0,2.59-5,5.78-9,5.78-2.8,0-13.75-1.51-13.75-5.78V39.68a3.4,3.4,0,0,1,3.4-3.4h16a3.4,3.4,0,0,1,3.13,2.11h8a3.43,3.43,0,0,1,3.14-2.11Z"/><circle class="cls-9" cx="37.88" cy="51.98" r="3.12"/><circle class="cls-9" cx="66.92" cy="51.98" r="3.12"/><circle class="cls-5" cx="12.63" cy="48.86" r="4.83"/><path class="cls-9" d="M12.63,57V71.65s-.46,5.06,2.57,5.8a4.73,4.73,0,0,0,5.33-1.79S19.44,80.4,23,81.31a5.53,5.53,0,0,0,4.83-.77S29,84.4,32.47,84.21a8,8,0,0,0,5.41-2.51A8.22,8.22,0,0,0,45,85.37c4.84-.19,6.39-2.51,6.39-2.51a14.39,14.39,0,0,0,8.31,2.52,5.33,5.33,0,0,0,5.22-4.46,6.19,6.19,0,0,0,6.87,1.55,4.6,4.6,0,0,0,3-5.8s5.21.58,5.41-3.48.38-11.59-2.71-14.11-5.69-2.14-5.69-2.14S70.16,61,53.54,61.4,17,56.94,17,56.94L15.85,35.31H12.63Z"/><ellipse class="cls-5" cx="35.12" cy="69.71" rx="7.55" ry="6.31"/><g class="cls-10"><path class="cls-11" d="M12,52.13a.39.39,0,0,1-.15,0,3.45,3.45,0,0,1-2.28-4,.51.51,0,0,1,.59-.39.5.5,0,0,1,.4.58,2.51,2.51,0,0,0,1.59,2.9.49.49,0,0,1,.32.63A.48.48,0,0,1,12,52.13Z"/></g><g class="cls-10"><path class="cls-11" d="M35.22,72.58h-.11a4.54,4.54,0,0,1-3.58-2.29,1,1,0,1,1,1.65-1.13,2.73,2.73,0,0,0,2,1.43h0A3.84,3.84,0,0,0,37.7,69.1a1,1,0,0,1,1.58,1.23C39.21,70.42,37.5,72.58,35.22,72.58Z"/></g><path class="cls-12" d="M46.76,60.57S47.43,56.9,50.4,56s7.29-.85,7.6,2.32-1.55,2.24-1.55,2.24"/><path class="cls-9" d="M21.68,26.29s.19,11.4-1.93,14.88S12,50.64,8.92,49.67s-.77-5.6-.77-5.6-2.9,5.41-6.76,3.09S2.93,40.78,3.32,36,1.77,17.2,5.64,12s9.66-6.95,12-5.6C19,2.13,29.22,0,38.3,0S58.21,3.29,62.85,7.92s7,7.74,8,10.25,2.79,7,5.11,9.08.19,6.57-2.51,7-5-2.32-5-2.32a5,5,0,0,1-4.06,2.9c-3.09.39-6.76-4.64-6.76-4.64s-1.16,4.06-6.77,4.45-10.72,1.19-16.42-.39C29.81,32.93,21.68,26.29,21.68,26.29Z"/><g class="cls-10"><path class="cls-13" d="M41.52,32.72h0c-9.92-.26-19.33-9.95-19.73-10.36A1,1,0,0,1,23.2,21c.09.09,9.25,9.5,18.35,9.74a1,1,0,0,1,0,2Z"/></g><path class="cls-13" d="M6.57,29.63a1,1,0,0,1-1-.84C3.18,14.09,11.45,9.39,11.8,9.2a1,1,0,1,1,1,1.75c-.31.17-7.37,4.29-5.2,17.52a1,1,0,0,1-.83,1.15Z"/></g></g></svg>